<svg width="43" height="40" viewBox="0 0 43 40" fill="none" xmlns="http://www.w3.org/2000/svg">
<path fill-rule="evenodd" clip-rule="evenodd" d="M29.5132 37.597C26.684 39.1297 23.4436 40 20 40C8.9543 40 0 31.0457 0 20C0 8.9543 8.9543 0 20 0C23.0521 0 25.9446 0.683679 28.5326 1.90625C28.3663 2.11885 28.209 2.34319 28.0619 2.57929C27.37 3.68974 26.8253 5.0318 26.47 6.46327C24.5111 5.52529 22.3169 5 20 5C11.7157 5 5 11.7157 5 20C5 28.2843 11.7157 35 20 35C24.2915 35 28.162 33.1978 30.8961 30.309C30.5961 31.4152 30.1892 32.6031 29.6373 33.9318C29.2262 34.809 29.1122 35.4488 29.1122 36.4602C29.1122 36.8663 29.2596 37.247 29.5132 37.597ZM26.0138 9.61337C25.8567 13.2765 27.0306 16.8663 30.1625 18.2555C31.135 19.128 31.7379 20.2124 31.7379 21.6199C31.7379 21.9224 31.7379 22.2186 31.7371 22.5099C30.5832 27.9324 25.7666 32 20 32C13.3726 32 8 26.6274 8 20C8 13.3726 13.3726 8 20 8C22.1914 8 24.2456 8.58741 26.0138 9.61337Z" fill="#E4C590"/>
<path d="M38.7607 17.8781C43.7982 15.5576 43.5779 8.15098 40.8104 3.53905C37.9996 -1.14555 33.7943 -1.21369 30.9427 3.53905C28.1901 8.12605 27.9363 15.5491 32.9923 17.8781C33.9183 18.7408 34.6263 20.4349 34.6263 21.8266C34.6263 26.0162 34.8838 29.3087 32.7001 34.1394C32.3086 35.0068 32.1257 35.6631 32.1257 36.2062C32.1257 38.2981 33.8081 40 35.8765 40C37.9449 40 39.6273 38.2981 39.6273 36.2062C39.6273 35.6631 39.4445 35.0068 39.053 34.1394C36.8389 29.2417 37.1268 25.7222 37.1268 21.8266C37.1268 20.4349 37.8348 18.7408 38.7607 17.8781Z" fill="#E4C590"/>
</svg>
