<?xml version="1.0" encoding="utf-8"?>
<!-- Generator: Adobe Illustrator 18.0.0, SVG Export Plug-In . SVG Version: 6.00 Build 0)  -->
<!DOCTYPE svg PUBLIC "-//W3C//DTD SVG 1.1//EN" "http://www.w3.org/Graphics/SVG/1.1/DTD/svg11.dtd">
<svg version="1.1" id="Layer_1" xmlns="http://www.w3.org/2000/svg" xmlns:xlink="http://www.w3.org/1999/xlink" x="0px" y="0px"
	 viewBox="0 0 17.4 841.9" enable-background="new 0 0 17.4 841.9" xml:space="preserve">
<g>
	<g>
		<path fill="#E4C590" d="M-0.1,285.8c0-0.4,0-0.7,0-1.1c0.2,0.1,0.3,0.2,0.5,0.3c2.6-2.6,5.2-5.2,7.7-7.7c-1.2-1.2-2.3-2.3-3.5-3.5
			c-1.3,1.3-2.8,2.8-4.2,4.2c-0.2-0.1-0.3-0.2-0.5-0.3c0-0.4,0-0.8,0-1.2c0.2,0.1,0.3,0.3,0.5,0.3c1.2-1.2,2.4-2.4,3.6-3.6
			c-1.1-1.1-2.3-2.3-3.5-3.5c-0.2,0.2-0.3,0.3-0.5,0.5c0-0.7,0-1.4,0-2.1c0.1,0.1,0.2,0.1,0.4,0.2c0-0.3,0-0.4,0-0.6
			c0-2,0-4.1,0-6.1c0-0.3-0.1-0.5-0.4-0.7c0-0.4,0-0.7,0-1.1c0.1,0,0.2,0.1,0.4,0.2c0-0.2,0-0.4,0-0.5c0-2,0-4,0-6
			c0-0.3,0-0.6-0.4-0.8c0-0.4,0-0.7,0-1.1c0.1,0,0.2,0.1,0.4,0.2c0-0.2,0-0.4,0-0.6c0-2,0-4,0-6c0-0.3,0-0.7-0.4-0.8
			c0-0.4,0-0.7,0-1.1c0.1,0,0.2,0.1,0.3,0.2c0-2.2,0-4.4,0-6.6c-0.2,0-0.2,0.1-0.3,0.2c0-0.7,0-1.3,0-2c0.2,0.2,0.4,0.4,0.6,0.5
			c1.2-1.2,2.4-2.4,3.5-3.5c-1.3-1.3-2.7-2.7-4-4.2c0-0.4,0-0.7,0-1.1c0.1,0.1,0.3,0.2,0.4,0.3c1.3,1.3,2.7,2.7,4,4
			c0.1,0.1,0.2,0.2,0.3,0.3c1.2-1.2,2.4-2.4,3.6-3.6c-0.3-0.3-0.7-0.6-1-0.9c-2.4-2.4-4.9-4.9-7.3-7.3c0-0.4,0-0.7,0-1.1
			c0.2,0.1,0.3,0.2,0.4,0.3c2.7,2.7,5.4,5.4,8.2,8.2c0.1,0.1,0.2,0.2,0.3,0.3c1.2-1.2,2.4-2.4,3.6-3.5c-4.2-4.2-8.3-8.3-12.5-12.5
			c0-0.4,0-0.7,0-1.1c0.2,0.1,0.3,0.2,0.5,0.4c4.1,4.1,8.2,8.2,12.3,12.3c0.1,0.1,0.3,0.2,0.3,0.3c1.2-1.2,2.4-2.4,3.5-3.5
			c-5.3-5.3-10.7-10.7-16.1-16.1c-0.1,0.1-0.3,0.2-0.4,0.3c0-0.4,0-0.7,0-1.1c0-0.1,0.1-0.3,0.1-0.4c0-2.2,0-4.4,0-6.5
			c0-0.1,0-0.3-0.1-0.4c0-0.7,0-1.4,0-2.1c0.2,0.2,0.3,0.3,0.5,0.4c4-4,8-8,11.9-11.9c-1.1-1.2-2.3-2.3-3.5-3.5
			c-2.7,2.7-5.5,5.5-8.3,8.4c-0.2-0.2-0.3-0.3-0.5-0.4c0-0.4,0-0.7,0-1.1c0.2,0.1,0.3,0.2,0.5,0.3c2.6-2.6,5.2-5.2,7.7-7.7
			c-1.2-1.2-2.3-2.3-3.5-3.5c-1.3,1.3-2.8,2.8-4.2,4.2c-0.2-0.1-0.3-0.2-0.5-0.3c0-0.4,0-0.8,0-1.2c0.2,0.1,0.3,0.3,0.5,0.3
			c1.2-1.2,2.4-2.4,3.6-3.6c-1.1-1.1-2.3-2.3-3.5-3.5c-0.2,0.2-0.3,0.3-0.5,0.5c0-0.7,0-1.4,0-2.1c0.1,0.1,0.2,0.1,0.4,0.2
			c0-0.3,0-0.4,0-0.6c0-2,0-4.1,0-6.1c0-0.3-0.1-0.5-0.4-0.7c0-0.4,0-0.7,0-1.1c0.1,0,0.2,0.1,0.4,0.2c0-0.2,0-0.4,0-0.5
			c0-2,0-4,0-6c0-0.3,0-0.6-0.4-0.8c0-0.4,0-0.7,0-1.1c0.1,0,0.2,0.1,0.4,0.2c0-0.2,0-0.4,0-0.6c0-2,0-4,0-6c0-0.3,0-0.7-0.4-0.8
			c0-0.4,0-0.7,0-1.1c0.1,0,0.2,0.1,0.3,0.2c0-2.2,0-4.4,0-6.6c-0.2,0-0.2,0.1-0.3,0.2c0-0.7,0-1.3,0-2c0.2,0.2,0.4,0.4,0.6,0.5
			c1.2-1.2,2.4-2.4,3.5-3.5c-1.3-1.3-2.7-2.7-4-4.2c0-0.4,0-0.7,0-1.1c0.1,0.1,0.3,0.2,0.4,0.3c1.3,1.3,2.7,2.7,4,4
			c0.1,0.1,0.2,0.2,0.3,0.3c1.2-1.2,2.4-2.4,3.6-3.6c-0.3-0.3-0.7-0.6-1-0.9c-2.4-2.4-4.9-4.9-7.3-7.3c0-0.4,0-0.7,0-1.1
			c0.2,0.1,0.3,0.2,0.4,0.3c2.7,2.7,5.4,5.4,8.2,8.2c0.1,0.1,0.2,0.2,0.3,0.3c1.2-1.2,2.4-2.4,3.6-3.6c-4.2-4.2-8.4-8.4-12.6-12.5
			c0-0.4,0-0.7,0-1.1c0.2,0.1,0.3,0.2,0.5,0.4c4.1,4.1,8.2,8.2,12.3,12.3c0.1,0.1,0.3,0.2,0.3,0.3c1.2-1.2,2.4-2.4,3.5-3.5
			c-5.4-5.3-10.7-10.7-16.1-16c-0.1,0.1-0.3,0.2-0.4,0.3c0-0.4,0-0.7,0-1.1c0-0.1,0.1-0.3,0.1-0.4c0-2.2,0-4.4,0-6.5
			c0-0.1,0-0.3-0.1-0.4c0-0.7,0-1.4,0-2.1c0.2,0.2,0.3,0.3,0.5,0.4c4-4,8-8,11.9-11.9c-1.1-1.2-2.3-2.3-3.5-3.5
			c-2.7,2.7-5.5,5.5-8.3,8.4c-0.2-0.2-0.3-0.3-0.5-0.4c0-0.4,0-0.7,0-1.1c0.2,0.1,0.3,0.2,0.5,0.3c2.6-2.6,5.2-5.2,7.7-7.7
			c-1.2-1.2-2.3-2.3-3.5-3.5c-1.3,1.3-2.8,2.8-4.2,4.2c-0.2-0.1-0.3-0.2-0.5-0.3c0-0.4,0-0.8,0-1.2c0.2,0.1,0.3,0.3,0.5,0.3
			c1.2-1.2,2.4-2.4,3.6-3.6c-1.1-1.1-2.3-2.3-3.5-3.5c-0.2,0.2-0.3,0.3-0.5,0.5c0-0.7,0-1.4,0-2.1c0.1,0.1,0.2,0.1,0.4,0.2
			c0-0.3,0-0.4,0-0.6c0-2,0-4.1,0-6.1c0-0.3-0.1-0.5-0.4-0.7c0-0.4,0-0.7,0-1.1c0.1,0,0.2,0.1,0.4,0.2c0-0.2,0-0.4,0-0.5
			c0-2,0-4,0-6c0-0.3,0-0.6-0.4-0.8c0-0.4,0-0.7,0-1.1c0.1,0,0.2,0.1,0.4,0.2c0-0.2,0-0.4,0-0.6c0-2,0-4,0-6c0-0.3,0-0.7-0.4-0.8
			c0-0.4,0-0.7,0-1.1c0.1,0,0.2,0.1,0.3,0.2c0-2.2,0-4.4,0-6.6c-0.2,0-0.2,0.1-0.3,0.2c0-0.7,0-1.3,0-2c0.2,0.2,0.4,0.4,0.6,0.5
			c1.2-1.2,2.4-2.4,3.5-3.5c-1.3-1.3-2.7-2.7-4-4.2c0-0.4,0-0.7,0-1.1c0.1,0.1,0.3,0.2,0.4,0.3c1.3,1.3,2.7,2.7,4,4
			c0.1,0.1,0.2,0.2,0.3,0.3c1.2-1.2,2.4-2.4,3.6-3.6c-0.3-0.3-0.7-0.6-1-0.9c-2.5-2.5-4.9-4.9-7.3-7.4c0-0.4,0-0.7,0-1.1
			C0,18.9,0.2,19,0.3,19.1c2.7,2.7,5.4,5.4,8.2,8.1c0.1,0.1,0.2,0.2,0.3,0.3c1.2-1.2,2.4-2.4,3.6-3.5C8.2,19.8,4,15.7-0.1,11.6
			c0-0.4,0-0.7,0-1.1c0.2,0.1,0.3,0.2,0.5,0.4c4.1,4.1,8.2,8.2,12.3,12.3c0.1,0.1,0.3,0.2,0.3,0.3c1.2-1.2,2.4-2.4,3.5-3.5
			C11,14.6,5.7,9.2,0.3,3.9C0.2,3.9,0,4-0.1,4.2c0-1.1,0-2.1,0-3.2c0.3,0,0.6,0,0.9,0c0,0.5,0,1.1,0,1.6c0,0.2,0.1,0.5,0.3,0.7
			C1.9,4.2,2.9,5.1,3.8,6C3.8,6,3.9,6.1,4.1,6.2c0-1.8,0-3.5,0-5.2c0.3,0,0.5,0,0.8,0c0,1.9,0,3.9,0,5.8C5,7,5.1,7.2,5.2,7.4
			C6.1,8.3,7,9.2,8,10.1c0.1,0.1,0.2,0.1,0.3,0.2c0-1.3,0-2.5,0-3.6c0-1.9,0-3.8,0-5.7c0.3,0,0.5,0,0.8,0c0,3.4,0,6.7,0,10
			c0,0.2,0.1,0.4,0.2,0.5c0.9,0.9,1.8,1.8,2.7,2.7c0.1,0.1,0.2,0.1,0.3,0.2c0-0.3,0-0.5,0-0.7c0-4.1,0-8.2,0-12.3c0-0.2,0-0.4,0-0.6
			c0.2,0,0.5,0,0.7,0c0,0.2,0,0.4,0,0.7c0,4.4,0,8.8,0,13.3c0,0.2,0,0.5,0.2,0.7c1.1,1.1,2.2,2.2,3.3,3.3c0,0.7,0,1.4,0,2.1
			c-1,1-1.9,2-2.9,3.1c0.9,0.9,1.9,1.9,2.9,2.9c0,0.4,0,0.7,0,1.1c-0.7-0.7-1.4-1.3-2.1-2c-0.5-0.5-1-1-1.4-1.4
			c-1.2,1.2-2.4,2.4-3.5,3.5c0,0,0.1,0.1,0.2,0.2c2.2,2.2,4.4,4.4,6.6,6.6c0.1,0.1,0.2,0.1,0.3,0.2c0,0.4,0,0.8,0,1.2
			c-0.1-0.1-0.3-0.2-0.4-0.3c-2.3-2.3-4.6-4.6-6.9-6.9c-0.2-0.2-0.2-0.3-0.3-0.4c-1.3,1.3-2.4,2.5-3.6,3.6c0,0,0.1,0.1,0.2,0.2
			c3.6,3.6,7.2,7.2,10.7,10.7c0.1,0.1,0.2,0.2,0.3,0.2c0,0.4,0,0.8,0,1.2c-0.2-0.2-0.3-0.3-0.4-0.4c-3.7-3.7-7.3-7.3-11-11
			C5.1,33,5,32.9,4.9,32.8c-1.2,1.2-2.4,2.4-3.5,3.5c0.1,0.1,0.2,0.2,0.3,0.3c3.7,3.7,7.3,7.3,11,11c1.3,1.3,2.7,2.7,4,4
			c0,0.4,0,0.7,0,1.1c-0.1-0.1-0.3-0.2-0.4-0.3c-2.2-2.2-4.3-4.3-6.5-6.5c-0.1-0.1-0.2-0.3-0.2-0.5c0,0-0.1,0.1-0.2,0.2
			c0,4.8,0,9.5,0,14.3c0,0,0.1,0,0.1,0.1c0.1-0.1,0.2-0.3,0.3-0.4c2.2-2.2,4.3-4.3,6.4-6.4c0.1-0.1,0.3-0.2,0.4-0.3
			c0,0.4,0,0.7,0,1.1c-0.2,0.2-0.3,0.3-0.4,0.4c-2.5,2.5-5,5-7.5,7.5c-2.4,2.4-4.7,4.7-7.1,7.1c-0.1,0.1-0.2,0.3-0.3,0.3
			c1.2,1.2,2.4,2.4,3.6,3.6c0.1-0.2,0.2-0.3,0.3-0.5c3.7-3.7,7.3-7.4,11-11c0.1-0.1,0.3-0.2,0.4-0.3c0,0.4,0,0.8,0,1.2
			c-0.1,0.1-0.2,0.2-0.3,0.3c-3.5,3.5-7.1,7.1-10.6,10.6c-0.1,0.1-0.2,0.2-0.3,0.3c1.2,1.2,2.4,2.4,3.5,3.5c0.1-0.1,0.2-0.2,0.4-0.3
			c2.3-2.3,4.6-4.6,6.9-6.9c0.1-0.1,0.3-0.2,0.4-0.3c0,0.4,0,0.8,0,1.2c-0.1,0.1-0.2,0.2-0.3,0.2c-2.2,2.2-4.4,4.4-6.6,6.6
			c-0.1,0.1-0.2,0.2-0.2,0.2c1.2,1.2,2.4,2.4,3.5,3.5c0.8-0.8,1.8-1.8,2.7-2.7c0.3-0.3,0.5-0.5,0.8-0.7c0,0.4,0,0.7,0,1.1
			c-1,1-2,2-2.9,2.9c1,1,2,2,2.9,3c0,0.4,0,0.7,0,1.1c-0.1-0.1-0.3-0.2-0.4-0.3c-0.9-0.9-1.8-1.8-2.7-2.7c-0.1-0.1-0.2-0.2-0.4-0.3
			c0,0.3,0,0.5,0,0.7c0,5.9,0,11.8,0,17.7c0,4.5,0,9,0,13.6c0,0.2,0,0.5,0.2,0.7c1.1,1.1,2.2,2.2,3.3,3.3c0,0.7,0,1.4,0,2.1
			c-1,1-1.9,2-2.9,3.1c0.9,0.9,1.9,1.9,2.9,2.9c0,0.4,0,0.7,0,1.1c-0.7-0.7-1.4-1.3-2.1-2c-0.5-0.5-1-1-1.4-1.4
			c-1.2,1.2-2.4,2.4-3.5,3.5c0,0,0.1,0.1,0.2,0.2c2.2,2.2,4.4,4.4,6.6,6.6c0.1,0.1,0.2,0.1,0.3,0.2c0,0.4,0,0.8,0,1.2
			c-0.1-0.1-0.3-0.2-0.4-0.3c-2.3-2.3-4.6-4.6-6.9-6.9c-0.2-0.2-0.2-0.3-0.3-0.4c-1.3,1.3-2.4,2.5-3.6,3.6c0,0,0.1,0.1,0.2,0.2
			c3.6,3.6,7.2,7.2,10.7,10.7c0.1,0.1,0.2,0.2,0.3,0.2c0,0.4,0,0.8,0,1.2c-0.2-0.2-0.3-0.3-0.4-0.4c-3.7-3.7-7.3-7.3-11-11
			c-0.2-0.2-0.3-0.3-0.3-0.3c-1.2,1.2-2.4,2.4-3.5,3.5c0.1,0.1,0.2,0.2,0.3,0.3c3.7,3.7,7.3,7.3,11,11c1.3,1.3,2.7,2.7,4,4
			c0,0.4,0,0.7,0,1.1c-0.1-0.1-0.3-0.2-0.4-0.3c-2.2-2.2-4.3-4.3-6.5-6.5c-0.1-0.1-0.2-0.3-0.2-0.5c0,0-0.1,0.1-0.2,0.2
			c0,4.8,0,9.5,0,14.3c0,0,0.1,0,0.1,0c0.1-0.1,0.2-0.2,0.3-0.3c2.2-2.2,4.3-4.3,6.4-6.4c0.1-0.1,0.3-0.2,0.4-0.3c0,0.4,0,0.7,0,1.1
			c-0.2,0.2-0.3,0.3-0.4,0.4c-2.5,2.5-5,5-7.5,7.5c-2.4,2.4-4.7,4.7-7.1,7.1c-0.1,0.1-0.2,0.3-0.3,0.3c1.2,1.2,2.4,2.4,3.6,3.6
			c0.1-0.2,0.2-0.3,0.3-0.5c3.7-3.7,7.3-7.4,11-11c0.1-0.1,0.3-0.2,0.4-0.3c0,0.4,0,0.8,0,1.2c-0.1,0.1-0.2,0.2-0.3,0.3
			c-3.5,3.5-7.1,7.1-10.6,10.6c-0.1,0.1-0.2,0.2-0.3,0.3c1.2,1.2,2.4,2.4,3.5,3.5c0.1-0.1,0.2-0.2,0.4-0.3c2.3-2.3,4.6-4.6,6.9-6.9
			c0.1-0.1,0.3-0.2,0.4-0.3c0,0.4,0,0.8,0,1.2c-0.1,0.1-0.2,0.2-0.3,0.2c-2.2,2.2-4.4,4.4-6.6,6.6c-0.1,0.1-0.2,0.2-0.2,0.2
			c1.2,1.2,2.4,2.4,3.5,3.5c0.8-0.8,1.8-1.8,2.7-2.7c0.3-0.3,0.5-0.5,0.8-0.7c0,0.4,0,0.7,0,1.1c-1,1-2,2-2.9,2.9c1,1,2,2,2.9,3
			c0,0.4,0,0.7,0,1.1c-0.1-0.1-0.3-0.2-0.4-0.3c-0.9-0.9-1.8-1.8-2.7-2.7c-0.1-0.1-0.2-0.2-0.4-0.3c0,0.3,0,0.5,0,0.7
			c0,5.9,0,11.8,0,17.7c0,4.5,0,9,0,13.6c0,0.2,0,0.5,0.2,0.7c1.1,1.1,2.2,2.2,3.3,3.3c0,0.7,0,1.4,0,2.1c-1,1-1.9,2-2.9,3.1
			c0.9,0.9,1.9,1.9,2.9,2.9c0,0.4,0,0.7,0,1.1c-0.7-0.7-1.4-1.3-2.1-2c-0.5-0.5-1-1-1.4-1.4c-1.2,1.2-2.4,2.4-3.5,3.5
			c0,0,0.1,0.1,0.2,0.2c2.2,2.2,4.4,4.4,6.6,6.6c0.1,0.1,0.2,0.1,0.3,0.2c0,0.4,0,0.8,0,1.2c-0.1-0.1-0.3-0.2-0.4-0.3
			c-2.3-2.3-4.6-4.6-6.9-6.9c-0.2-0.2-0.2-0.3-0.3-0.4c-1.3,1.3-2.4,2.5-3.6,3.6c0,0,0.1,0.1,0.2,0.2c3.6,3.6,7.2,7.2,10.7,10.7
			c0.1,0.1,0.2,0.2,0.3,0.2c0,0.4,0,0.8,0,1.2c-0.2-0.2-0.3-0.3-0.4-0.4c-3.7-3.7-7.3-7.3-11-11c-0.2-0.2-0.3-0.3-0.3-0.3
			c-1.2,1.2-2.4,2.4-3.5,3.5c0.1,0.1,0.2,0.2,0.3,0.3c3.7,3.7,7.3,7.3,11,11c1.3,1.3,2.7,2.7,4,4c0,0.4,0,0.7,0,1.1
			c-0.1-0.1-0.3-0.2-0.4-0.3c-2.2-2.2-4.3-4.3-6.5-6.5c-0.1-0.1-0.2-0.3-0.2-0.5c0,0-0.1,0.1-0.2,0.2c0,4.8,0,9.5,0,14.4
			c0.2-0.2,0.3-0.3,0.4-0.4c2.2-2.2,4.3-4.3,6.4-6.4c0.1-0.1,0.3-0.2,0.4-0.3c0,0.4,0,0.7,0,1.1c-0.2,0.2-0.3,0.3-0.4,0.4
			c-2.5,2.5-5,5-7.5,7.5c-2.4,2.4-4.7,4.7-7.1,7.1c-0.1,0.1-0.2,0.3-0.3,0.3c1.2,1.2,2.4,2.4,3.6,3.6c0.1-0.2,0.2-0.3,0.3-0.5
			c3.7-3.7,7.3-7.4,11-11c0.1-0.1,0.3-0.2,0.4-0.3c0,0.4,0,0.8,0,1.2c-0.1,0.1-0.2,0.2-0.3,0.3c-3.5,3.5-7.1,7.1-10.6,10.6
			c-0.1,0.1-0.2,0.2-0.3,0.3c1.2,1.2,2.4,2.4,3.5,3.5c0.1-0.1,0.2-0.2,0.4-0.3c2.3-2.3,4.6-4.6,6.9-6.9c0.1-0.1,0.3-0.2,0.4-0.3
			c0,0.4,0,0.8,0,1.2c-0.1,0.1-0.2,0.2-0.3,0.2c-2.2,2.2-4.4,4.4-6.6,6.6c-0.1,0.1-0.2,0.2-0.2,0.2c1.2,1.2,2.4,2.4,3.5,3.5
			c0.9-0.9,1.8-1.8,2.7-2.7c0.3-0.3,0.5-0.5,0.8-0.7c0,0.4,0,0.7,0,1.1c-1,1-2,2-2.9,2.9c1,1,2,2,2.9,3c0,0.4,0,0.7,0,1.1
			c-0.1-0.1-0.3-0.2-0.4-0.3c-0.9-0.9-1.8-1.8-2.7-2.7c-0.1-0.1-0.2-0.2-0.4-0.3c0,0.3,0,0.5,0,0.7c0,5.9,0,11.8,0,17.7
			c0,4.5,0,9,0,13.6c0,0.2,0,0.5,0.2,0.7c1.1,1.1,2.2,2.2,3.3,3.3c0,0.7,0,1.4,0,2.1c-1,1-1.9,2-2.9,3.1c0.9,0.9,1.9,1.9,2.9,2.9
			c0,0.4,0,0.7,0,1.1c-0.7-0.7-1.4-1.3-2.1-2c-0.5-0.5-1-1-1.4-1.4c-1.2,1.2-2.4,2.4-3.5,3.5c0,0,0.1,0.1,0.2,0.2
			c2.2,2.2,4.4,4.4,6.6,6.6c0.1,0.1,0.2,0.1,0.3,0.2c0,0.4,0,0.8,0,1.2c-0.1-0.1-0.3-0.2-0.4-0.3c-2.3-2.3-4.6-4.6-6.9-6.9
			c-0.2-0.2-0.2-0.3-0.3-0.4c-1.3,1.3-2.4,2.5-3.6,3.6c0,0,0.1,0.1,0.2,0.2c3.6,3.6,7.2,7.2,10.7,10.7c0.1,0.1,0.2,0.2,0.3,0.2
			c0,0.4,0,0.8,0,1.2c-0.2-0.2-0.3-0.3-0.4-0.4c-3.7-3.7-7.3-7.3-11-11c-0.2-0.2-0.3-0.3-0.3-0.3c-1.2,1.2-2.4,2.4-3.5,3.5
			c0.1,0.1,0.2,0.2,0.3,0.3c3.7,3.7,7.3,7.3,11,11c1.3,1.3,2.7,2.7,4,4c0,0.4,0,0.7,0,1.1c-0.1-0.1-0.3-0.2-0.4-0.3
			c-2.2-2.2-4.3-4.3-6.5-6.5c-0.1-0.1-0.2-0.3-0.2-0.5c0,0-0.1,0.1-0.2,0.2c0,4.8,0,9.5,0,14.3c0,0,0.1,0,0.1,0.1
			c0.1-0.1,0.2-0.3,0.3-0.4c2.2-2.2,4.3-4.3,6.4-6.4c0.1-0.1,0.3-0.2,0.4-0.3c0,0.4,0,0.7,0,1.1c-0.2,0.2-0.3,0.3-0.4,0.4
			c-2.5,2.5-5,5-7.5,7.5c-2.4,2.4-4.7,4.7-7.1,7.1c-0.1,0.1-0.2,0.3-0.3,0.3c1.2,1.2,2.4,2.4,3.6,3.6c0.1-0.2,0.2-0.3,0.3-0.5
			c3.7-3.7,7.3-7.4,11-11c0.1-0.1,0.3-0.2,0.4-0.3c0,0.4,0,0.8,0,1.2c-0.1,0.1-0.2,0.2-0.3,0.3c-3.5,3.5-7.1,7.1-10.6,10.6
			c-0.1,0.1-0.2,0.2-0.3,0.3c1.2,1.2,2.4,2.4,3.5,3.5c0.1-0.1,0.2-0.2,0.4-0.3c2.3-2.3,4.6-4.6,6.9-6.9c0.1-0.1,0.3-0.2,0.4-0.3
			c0,0.4,0,0.8,0,1.2c-0.1,0.1-0.2,0.2-0.3,0.2c-2.2,2.2-4.4,4.4-6.6,6.6c-0.1,0.1-0.2,0.2-0.2,0.2c1.2,1.2,2.4,2.4,3.5,3.5
			c0.9-0.9,1.8-1.8,2.7-2.7c0.3-0.3,0.5-0.5,0.8-0.7c0,0.4,0,0.7,0,1.1c-1,1-2,2-2.9,2.9c1,1,2,2,2.9,3c0,0.4,0,0.7,0,1.1
			c-0.1-0.1-0.3-0.2-0.4-0.3c-0.9-0.9-1.8-1.8-2.7-2.7c-0.1-0.1-0.2-0.2-0.4-0.3c0,0.3,0,0.5,0,0.7c0,5.9,0,11.8,0,17.7
			c0,4.5,0,9,0,13.6c0,0.2,0,0.5,0.2,0.7c1.1,1.1,2.2,2.2,3.3,3.3c0,0.7,0,1.4,0,2.1c-1,1-1.9,2-2.9,3.1c0.9,0.9,1.9,1.9,2.9,2.9
			c0,0.4,0,0.7,0,1.1c-0.7-0.7-1.4-1.3-2.1-2c-0.5-0.5-1-1-1.4-1.4c-1.2,1.2-2.4,2.4-3.5,3.5c0,0,0.1,0.1,0.2,0.2
			c2.2,2.2,4.4,4.4,6.6,6.6c0.1,0.1,0.2,0.1,0.3,0.2c0,0.4,0,0.8,0,1.2c-0.1-0.1-0.3-0.2-0.4-0.3c-2.3-2.3-4.6-4.6-6.9-6.9
			c-0.2-0.2-0.2-0.3-0.3-0.4c-1.3,1.3-2.4,2.5-3.6,3.6c0,0,0.1,0.1,0.2,0.2c3.6,3.6,7.2,7.2,10.7,10.7c0.1,0.1,0.2,0.2,0.3,0.2
			c0,0.4,0,0.8,0,1.2c-0.2-0.2-0.3-0.3-0.4-0.4c-3.7-3.7-7.3-7.3-11-11c-0.2-0.2-0.2-0.3-0.3-0.4c-1.3,1.3-2.4,2.4-3.7,3.7
			c0.1,0.1,0.2,0.2,0.3,0.3c2.6,2.6,5.2,5.2,7.7,7.7c0.1,0.1,0.2,0.3,0.3,0.4c-0.4,0-0.8,0-1.2,0c-0.1-0.1-0.2-0.3-0.3-0.4
			c-0.8-0.8-1.6-1.6-2.4-2.4c-0.1-0.2-0.2-0.3-0.3-0.5c-0.1,0-0.2,0.1-0.2,0.2c0,1,0,2.1,0,3.2c-0.3,0-0.5,0-0.8,0
			c0-1.3,0-2.5,0-3.8c0-0.2-0.1-0.5-0.2-0.6c-1-1-1.9-2-2.9-2.9c-0.1-0.1-0.1-0.1-0.3-0.2c0,0.3,0,0.4,0,0.6c0,2.3,0,4.6,0,6.9
			c-0.4,0-0.8,0-1.2,0c0-0.4,0-0.8,0-1.3c0.1,0,0.2,0.1,0.3,0.2c0-2.2,0-4.4,0-6.6c-0.2,0-0.2,0.1-0.3,0.2c0-0.7,0-1.3,0-2
			c0.2,0.2,0.4,0.4,0.6,0.5c1.2-1.2,2.4-2.4,3.5-3.5c-1.3-1.3-2.7-2.7-4-4.2c0-0.4,0-0.7,0-1.1c0.1,0.1,0.3,0.2,0.4,0.3
			c1.3,1.3,2.7,2.7,4,4c0.1,0.1,0.2,0.2,0.3,0.3c1.2-1.2,2.4-2.4,3.6-3.6c-0.3-0.3-0.7-0.6-1-0.9c-2.4-2.4-4.9-4.9-7.3-7.3
			c0-0.4,0-0.7,0-1.1c0.2,0.1,0.3,0.2,0.4,0.3c2.7,2.7,5.4,5.4,8.2,8.2c0.1,0.1,0.2,0.2,0.3,0.3c1.2-1.2,2.4-2.4,3.6-3.6
			c-4.1-4.1-8.3-8.2-12.4-12.4c0-0.4,0-0.7,0-1.1c0.2,0.1,0.3,0.2,0.5,0.4c4.1,4.1,8.2,8.2,12.3,12.3c0.1,0.1,0.3,0.2,0.3,0.3
			c1.2-1.2,2.4-2.4,3.5-3.5c-5.3-5.3-10.7-10.7-16.1-16.1c-0.1,0.1-0.3,0.2-0.4,0.3c0-0.4,0-0.7,0-1.1c0-0.1,0.1-0.3,0.1-0.4
			c0-2.2,0-4.4,0-6.5c0-0.1,0-0.3-0.1-0.4c0-0.7,0-1.4,0-2.1c0.2,0.2,0.3,0.3,0.5,0.4c4-4,8-8,11.9-11.9c-1.1-1.2-2.3-2.3-3.5-3.5
			c-2.7,2.7-5.5,5.5-8.3,8.4c-0.2-0.2-0.3-0.3-0.5-0.4c0-0.4,0-0.7,0-1.1c0.2,0.1,0.3,0.2,0.5,0.3c2.6-2.6,5.2-5.2,7.7-7.7
			c-1.2-1.2-2.3-2.3-3.5-3.5c-1.3,1.3-2.8,2.8-4.2,4.2c-0.2-0.1-0.3-0.2-0.5-0.3c0-0.4,0-0.8,0-1.2c0.2,0.1,0.3,0.3,0.5,0.3
			c1.2-1.2,2.4-2.4,3.6-3.6c-1.1-1.1-2.3-2.3-3.5-3.5c-0.2,0.2-0.3,0.3-0.5,0.5c0-0.7,0-1.4,0-2.1c0.1,0.1,0.2,0.1,0.4,0.2
			c0-0.3,0-0.4,0-0.6c0-2,0-4.1,0-6.1c0-0.3-0.1-0.5-0.4-0.7c0-0.4,0-0.7,0-1.1c0.1,0,0.2,0.1,0.4,0.2c0-0.2,0-0.4,0-0.5
			c0-2,0-4,0-6c0-0.3,0-0.6-0.4-0.8c0-0.4,0-0.7,0-1.1c0.1,0,0.2,0.1,0.4,0.2c0-0.2,0-0.4,0-0.6c0-2,0-4,0-6c0-0.3,0-0.7-0.4-0.8
			c0-0.4,0-0.7,0-1.1c0.1,0,0.2,0.1,0.3,0.2c0-2.2,0-4.4,0-6.6c-0.2,0-0.2,0.1-0.3,0.2c0-0.7,0-1.3,0-2c0.2,0.2,0.4,0.4,0.6,0.5
			c1.2-1.2,2.4-2.4,3.5-3.5c-1.3-1.3-2.7-2.7-4-4.2c0-0.4,0-0.7,0-1.1c0.1,0.1,0.3,0.2,0.4,0.3c1.3,1.3,2.7,2.7,4,4
			c0.1,0.1,0.2,0.2,0.3,0.3c1.2-1.2,2.4-2.4,3.6-3.6c-0.3-0.3-0.7-0.6-1-0.9c-2.4-2.4-4.9-4.9-7.3-7.3c0-0.4,0-0.7,0-1.1
			c0.2,0.1,0.3,0.2,0.4,0.3c2.7,2.7,5.4,5.4,8.2,8.2c0.1,0.1,0.2,0.2,0.3,0.3c1.2-1.2,2.4-2.4,3.6-3.5c-4.8-4-9-8.2-13.1-12.3
			c0-0.4,0-0.7,0-1.1c0.2,0.1,0.3,0.2,0.5,0.4c4.1,4.1,8.2,8.2,12.3,12.3c0.1,0.1,0.3,0.2,0.3,0.3c1.2-1.2,2.4-2.4,3.5-3.5
			c-5.3-5.4-10.7-10.7-16.1-16.1c-0.1,0.1-0.3,0.2-0.4,0.3c0-0.4,0-0.7,0-1.1c0-0.1,0.1-0.3,0.1-0.4c0-2.2,0-4.4,0-6.5
			c0-0.1,0-0.3-0.1-0.4c0-0.7,0-1.4,0-2.1c0.2,0.2,0.3,0.3,0.5,0.4c4-4,8-8,11.9-11.9c-1.2-1.2-2.3-2.3-3.5-3.5
			c-2.7,2.7-5.5,5.5-8.3,8.4C0.2,286.1,0,286-0.1,285.8z M1.1,367.8c0.1,0,0.1,0,0.2-0.1c1-1,2-2,3-3c0.1-0.1,0.2-0.3,0.2-0.5
			c0-7.9,0-15.8,0-23.8c0-0.2-0.1-0.4-0.2-0.5c-1-1-2-2-3-3c0,0-0.1,0-0.2-0.1C1.1,347.2,1.1,357.5,1.1,367.8z M1.1,37.4
			c0,10.4,0,20.7,0,31.1c0.1,0,0.2-0.1,0.2-0.1c1-1,2-2,3-3c0.1-0.1,0.2-0.3,0.2-0.5c0-7.9,0-15.8,0-23.7c0-0.2,0-0.3-0.1-0.5
			C3.3,39.6,2.3,38.5,1.1,37.4z M1.1,268c0.1,0,0.2-0.1,0.2-0.1c1-1,2-2,3-3c0.1-0.1,0.2-0.3,0.2-0.5c0-7.9,0-15.8,0-23.7
			c0-0.2-0.1-0.5-0.3-0.7c-0.9-1-1.8-1.9-2.8-2.8c-0.1-0.1-0.2-0.2-0.3-0.2C1.1,247.4,1.1,257.7,1.1,268z M1.1,137.2
			c0,10.4,0,20.7,0,31.1c0.1,0,0.1,0,0.2-0.1c1-1,2-2,3.1-3.1c0.1-0.1,0.2-0.3,0.2-0.5c0-7.9,0-15.8,0-23.7c0-0.2,0-0.3-0.1-0.5
			C3.3,139.4,2.3,138.3,1.1,137.2z M12.4,382.4c-1,1-2,2-3,3c-0.2,0.2-0.3,0.5-0.3,0.7c0,8,0,15.9,0,23.9c0,0.2,0.1,0.5,0.3,0.7
			c0.9,0.9,1.8,1.8,2.7,2.7c0.1,0.1,0.2,0.2,0.3,0.3C12.4,403.2,12.4,392.9,12.4,382.4z M12.4,114.4c0-10.5,0-20.8,0-31.3
			c-1,1-1.9,1.9-2.9,2.9c-0.3,0.3-0.4,0.6-0.4,1c0,7.7,0,15.5,0,23.2c0,0.7,0.2,1.2,0.7,1.7C10.7,112.6,11.5,113.4,12.4,114.4z
			 M12.3,214.2c0-10.5,0-20.8,0-31.3c-1,1-1.9,1.9-2.9,2.9c-0.3,0.3-0.4,0.6-0.4,1c0,7.3,0,14.7,0,22c0,0.7-0.2,1.5,0.1,2.1
			c0.3,0.6,0.9,1,1.4,1.5C11.2,212.9,11.7,213.5,12.3,214.2z M12.4,282.6c-1,1-1.8,1.9-2.8,2.8c-0.4,0.3-0.5,0.7-0.5,1.2
			c0,1.9,0,3.9,0,5.8c0,5.9,0,11.8,0,17.6c0,0.4,0.1,0.7,0.4,0.9c0.7,0.7,1.5,1.5,2.2,2.2c0.2,0.2,0.4,0.5,0.6,0.7
			c0,0,0.1-0.1,0.1-0.1C12.4,303.4,12.4,293.1,12.4,282.6z M8.1,210c0,0,0.1-0.1,0.1-0.1c0-7.6,0-15.2,0-22.8c-0.1,0-0.1,0-0.2,0.1
			c-1,1-2,2-2.9,2.9C5,190.2,5,190.4,5,190.6c0,5.2,0,10.5,0,15.7c0,0.2,0.1,0.5,0.3,0.7c0.7,0.8,1.5,1.5,2.2,2.2
			C7.7,209.5,7.9,209.7,8.1,210z M8.2,110.2c0-7.7,0-15.3,0-23c-0.2,0.2-0.3,0.2-0.4,0.3C7,88.4,6.3,89.2,5.4,90
			c-0.3,0.3-0.5,0.7-0.5,1.1c0,4.9,0,9.7,0,14.5c0,1,0.2,1.7,1,2.3C6.7,108.6,7.4,109.4,8.2,110.2z M8.1,309.8c0,0,0.1-0.1,0.2-0.1
			c0-7.6,0-15.2,0-22.8c-0.1,0-0.1,0-0.2,0.1c-1,1-2,2-2.9,2.9C5,290,5,290.2,5,290.4c0,5.3,0,10.5,0,15.8c0,0.2,0.1,0.4,0.3,0.6
			c0.6,0.7,1.2,1.2,1.8,1.9C7.4,309,7.8,309.4,8.1,309.8z M8.2,386.6c-0.1,0-0.1,0-0.2,0.1c-1,1-2,2-2.9,2.9C5,389.8,5,390,5,390.2
			c0,5.2,0,10.5,0,15.7c0,0.2,0.1,0.5,0.3,0.7c0.7,0.8,1.5,1.5,2.2,2.2c0.2,0.2,0.4,0.5,0.7,0.8c0,0,0.1-0.1,0.1-0.1
			C8.2,401.9,8.2,394.3,8.2,386.6z M5.4,241.2c0,7.6,0,15.1,0,22.7c1-1,2-2,3-3c0.1-0.1,0.2-0.3,0.2-0.5c0-5.2,0-10.4,0-15.6
			c0-0.2,0-0.3-0.2-0.5C7.4,243.3,6.5,242.3,5.4,241.2z M5.4,141.4c0,7.6,0,15.1,0,22.6c1-1,2-2,3-3c0.1-0.1,0.2-0.3,0.2-0.5
			c0-5.2,0-10.4,0-15.6c0-0.2,0-0.3-0.2-0.5C7.4,143.5,6.4,142.5,5.4,141.4z M5.3,363.6c0.1-0.1,0.2-0.1,0.2-0.2
			c0.9-0.9,1.9-1.8,2.8-2.8c0.1-0.1,0.2-0.4,0.2-0.6c0-5.2,0-10.3,0-15.5c0-0.2-0.1-0.5-0.3-0.7c-0.8-0.9-1.7-1.7-2.6-2.6
			c-0.1-0.1-0.2-0.2-0.3-0.2C5.3,348.6,5.3,356,5.3,363.6z M5.4,64.3c1.1-1.1,2.1-2,3-3c0.1-0.1,0.2-0.3,0.2-0.5
			c0-5.2,0-10.4,0-15.5c0-0.2-0.1-0.5-0.3-0.7c-0.7-0.7-1.4-1.4-2.2-2.2c-0.2-0.2-0.4-0.5-0.6-0.7c0,0-0.1,0.1-0.1,0.1
			C5.4,49.2,5.4,56.7,5.4,64.3z M4.1,291c-0.2,0.2-0.3,0.2-0.3,0.3c-0.9,0.9-1.8,1.7-2.6,2.7c-0.2,0.2-0.3,0.5-0.3,0.7
			c0,2.5,0,4.9,0,7.4c0,0.2,0.1,0.5,0.3,0.7c0.8,0.9,1.8,1.8,2.6,2.7c0.1,0.1,0.2,0.2,0.3,0.3C4.1,300.7,4.1,295.9,4.1,291z
			 M4.1,205.8c0-4.9,0-9.7,0-14.6c-0.1,0.1-0.2,0.1-0.2,0.2c-1,1-1.9,1.9-2.9,2.9c-0.1,0.1-0.2,0.3-0.2,0.5c0,2.5,0,5,0,7.4
			c0,0.2,0.1,0.5,0.3,0.6c0.8,0.9,1.7,1.7,2.6,2.6C3.8,205.5,3.9,205.6,4.1,205.8z M4.1,91.4c-0.1,0-0.2,0.1-0.2,0.1
			c-1,1-2,2-2.9,2.9c-0.1,0.1-0.2,0.3-0.2,0.5c0,2.5,0,4.9,0,7.4c0,0.2,0.1,0.5,0.3,0.7c0.9,0.9,1.8,1.8,2.7,2.7
			c0.1,0.1,0.2,0.2,0.3,0.2C4.1,101.1,4.1,96.3,4.1,91.4z M4.1,405.4c0-4.9,0-9.7,0-14.6c-0.1,0.1-0.2,0.1-0.2,0.2
			c-1,1-1.9,1.9-2.9,2.9c-0.1,0.1-0.2,0.3-0.2,0.5c0,2.5,0,5,0,7.4c0,0.2,0.1,0.5,0.3,0.6c0.8,0.9,1.7,1.7,2.6,2.6
			C3.8,405.1,3.9,405.2,4.1,405.4z"/>
	</g>
	<g>
		<path fill="#E4C590" d="M-0.1,685.1c0-0.4,0-0.7,0-1.1c0.2,0.1,0.3,0.2,0.5,0.3c2.6-2.6,5.2-5.2,7.7-7.7c-1.2-1.2-2.3-2.3-3.5-3.5
			c-1.3,1.3-2.8,2.8-4.2,4.2c-0.2-0.1-0.3-0.2-0.5-0.3c0-0.4,0-0.8,0-1.2c0.2,0.1,0.3,0.3,0.5,0.3c1.2-1.2,2.4-2.4,3.6-3.6
			c-1.1-1.1-2.3-2.3-3.5-3.5c-0.2,0.2-0.3,0.3-0.5,0.5c0-0.7,0-1.4,0-2.1c0.1,0.1,0.2,0.1,0.4,0.2c0-0.3,0-0.4,0-0.6
			c0-2,0-4.1,0-6.1c0-0.3-0.1-0.5-0.4-0.7c0-0.4,0-0.7,0-1.1c0.1,0,0.2,0.1,0.4,0.2c0-0.2,0-0.4,0-0.5c0-2,0-4,0-6
			c0-0.3,0-0.6-0.4-0.8c0-0.4,0-0.7,0-1.1c0.1,0,0.2,0.1,0.4,0.2c0-0.2,0-0.4,0-0.6c0-2,0-4,0-6c0-0.3,0-0.7-0.4-0.8
			c0-0.4,0-0.7,0-1.1c0.1,0,0.2,0.1,0.3,0.2c0-2.2,0-4.4,0-6.6c-0.2,0-0.2,0.1-0.3,0.2c0-0.7,0-1.3,0-2c0.2,0.2,0.4,0.4,0.6,0.5
			c1.2-1.2,2.4-2.4,3.5-3.5c-1.3-1.3-2.7-2.7-4-4.2c0-0.4,0-0.7,0-1.1c0.1,0.1,0.3,0.2,0.4,0.3c1.3,1.3,2.7,2.7,4,4
			c0.1,0.1,0.2,0.2,0.3,0.3c1.2-1.2,2.4-2.4,3.6-3.6c-0.3-0.3-0.7-0.6-1-0.9c-2.4-2.4-4.9-4.9-7.3-7.3c0-0.4,0-0.7,0-1.1
			c0.2,0.1,0.3,0.2,0.4,0.3c2.7,2.7,5.4,5.4,8.2,8.2c0.1,0.1,0.2,0.2,0.3,0.3c1.2-1.2,2.4-2.4,3.6-3.5c-4.1-4.1-8.3-8.2-12.4-12.4
			c0-0.4,0-0.7,0-1.1c0.2,0.1,0.3,0.2,0.5,0.4c4.1,4.1,8.2,8.2,12.3,12.3c0.1,0.1,0.3,0.2,0.3,0.3c1.2-1.2,2.4-2.4,3.5-3.5
			c-5.3-5.3-10.7-10.7-16.1-16.1c-0.1,0.1-0.3,0.2-0.4,0.3c0-0.4,0-0.7,0-1.1c0-0.1,0.1-0.3,0.1-0.4c0-2.2,0-4.4,0-6.5
			c0-0.1,0-0.3-0.1-0.4c0-0.7,0-1.4,0-2.1c0.2,0.2,0.3,0.3,0.5,0.4c4-4,8-8,11.9-11.9c-1.1-1.2-2.3-2.3-3.5-3.5
			c-2.7,2.7-5.5,5.5-8.3,8.4c-0.2-0.2-0.3-0.3-0.5-0.4c0-0.4,0-0.7,0-1.1c0.2,0.1,0.3,0.2,0.5,0.3c2.6-2.6,5.2-5.2,7.7-7.7
			c-1.2-1.2-2.3-2.3-3.5-3.5c-1.3,1.3-2.8,2.8-4.2,4.2c-0.2-0.1-0.3-0.2-0.5-0.3c0-0.4,0-0.8,0-1.2c0.2,0.1,0.3,0.3,0.5,0.3
			c1.2-1.2,2.4-2.4,3.6-3.6c-1.1-1.1-2.3-2.3-3.5-3.5c-0.2,0.2-0.3,0.3-0.5,0.5c0-0.7,0-1.4,0-2.1c0.1,0.1,0.2,0.1,0.4,0.2
			c0-0.3,0-0.4,0-0.6c0-2,0-4.1,0-6.1c0-0.3-0.1-0.5-0.4-0.7c0-0.4,0-0.7,0-1.1c0.1,0,0.2,0.1,0.4,0.2c0-0.2,0-0.4,0-0.5
			c0-2,0-4,0-6c0-0.3,0-0.6-0.4-0.8c0-0.4,0-0.7,0-1.1c0.1,0,0.2,0.1,0.4,0.2c0-0.2,0-0.4,0-0.6c0-2,0-4,0-6c0-0.3,0-0.7-0.4-0.8
			c0-0.4,0-0.7,0-1.1c0.1,0,0.2,0.1,0.3,0.2c0-2.2,0-4.4,0-6.6c-0.2,0-0.2,0.1-0.3,0.2c0-0.7,0-1.3,0-2c0.2,0.2,0.4,0.4,0.6,0.5
			c1.2-1.2,2.4-2.4,3.5-3.5c-1.3-1.3-2.7-2.7-4-4.2c0-0.4,0-0.7,0-1.1c0.1,0.1,0.3,0.2,0.4,0.3c1.3,1.3,2.7,2.7,4,4
			c0.1,0.1,0.2,0.2,0.3,0.3c1.2-1.2,2.4-2.4,3.6-3.6c-0.3-0.3-0.7-0.6-1-0.9c-2.4-2.4-4.9-4.9-7.3-7.3c0-0.4,0-0.7,0-1.1
			c0.2,0.1,0.3,0.2,0.4,0.3c2.7,2.7,5.4,5.4,8.2,8.2c0.1,0.1,0.2,0.2,0.3,0.3c1.2-1.2,2.4-2.4,3.6-3.6c-4.1-4.1-8.3-8.2-12.4-12.4
			c0-0.4,0-0.7,0-1.1c0.2,0.1,0.3,0.2,0.5,0.4c4.1,4.1,8.2,8.2,12.3,12.3c0.1,0.1,0.3,0.2,0.3,0.3c1.2-1.2,2.4-2.4,3.5-3.5
			c-5.3-5.3-10.7-10.7-16.1-16.1c-0.1,0.1-0.3,0.2-0.4,0.3c0-0.4,0-0.7,0-1.1c0-0.1,0.1-0.3,0.1-0.4c0-2.2,0-4.4,0-6.5
			c0-0.1,0-0.3-0.1-0.4c0-0.7,0-1.4,0-2.1c0.2,0.2,0.3,0.3,0.5,0.4c4-4,8-8,11.9-11.9c-1.1-1.2-2.3-2.3-3.5-3.5
			c-2.7,2.7-5.5,5.5-8.3,8.4c-0.2-0.2-0.3-0.3-0.5-0.4c0-0.4,0-0.7,0-1.1c0.2,0.1,0.3,0.2,0.5,0.3c2.6-2.6,5.2-5.2,7.7-7.7
			c-1.2-1.2-2.3-2.3-3.5-3.5c-1.3,1.3-2.8,2.8-4.2,4.2c-0.2-0.1-0.3-0.2-0.5-0.3c0-0.4,0-0.8,0-1.2c0.2,0.1,0.3,0.3,0.5,0.3
			c1.2-1.2,2.4-2.4,3.6-3.6c-1.1-1.1-2.3-2.3-3.5-3.5c-0.2,0.2-0.3,0.3-0.5,0.5c0-0.7,0-1.4,0-2.1c0.1,0.1,0.2,0.1,0.4,0.2
			c0-0.3,0-0.4,0-0.6c0-2,0-4.1,0-6.1c0-0.3-0.1-0.5-0.4-0.7c0-0.4,0-0.7,0-1.1c0.1,0,0.2,0.1,0.4,0.2c0-0.2,0-0.4,0-0.5
			c0-2,0-4,0-6c0-0.3,0-0.6-0.4-0.8c0-0.4,0-0.7,0-1.1c0.1,0,0.2,0.1,0.4,0.2c0-0.2,0-0.4,0-0.6c0-2,0-4,0-6c0-0.3,0-0.7-0.4-0.8
			c0-0.4,0-0.7,0-1.1c0.1,0,0.2,0.1,0.3,0.2c0-2.2,0-4.4,0-6.6c-0.2,0-0.2,0.1-0.3,0.2c0-0.7,0-1.3,0-2c0.2,0.2,0.4,0.4,0.6,0.5
			c1.2-1.2,2.4-2.4,3.5-3.5c-1.3-1.3-2.7-2.7-4-4.2c0-0.4,0-0.7,0-1.1c0.1,0.1,0.3,0.2,0.4,0.3c1.3,1.3,2.7,2.7,4,4
			c0.1,0.1,0.2,0.2,0.3,0.3c1.2-1.2,2.4-2.4,3.6-3.6c-0.3-0.3-0.7-0.6-1-0.9c-2.4-2.4-4.9-4.9-7.3-7.3c0-0.4,0-0.7,0-1.1
			c0.2,0.1,0.3,0.2,0.4,0.3c2.7,2.7,5.4,5.4,8.2,8.2c0.1,0.1,0.2,0.2,0.3,0.3c1.2-1.2,2.4-2.4,3.6-3.5c-4.1-4.1-8.3-8.2-12.4-12.4
			c0-0.4,0-0.7,0-1.1c0.2,0.1,0.3,0.2,0.5,0.4c4.1,4.1,8.2,8.2,12.3,12.3c0.1,0.1,0.3,0.2,0.3,0.3c1.2-1.2,2.4-2.4,3.5-3.5
			c-5.3-5.3-10.7-10.7-16.1-16.1c-0.1,0.1-0.3,0.2-0.4,0.3c0-1,0-2.1,0-3.2c0.3,0,0.6,0,0.9,0c0,0.5,0,1.1,0,1.6
			c0,0.2,0.1,0.5,0.3,0.7c0.9,0.9,1.8,1.8,2.7,2.7c0.1,0.1,0.2,0.2,0.3,0.3c0-1.8,0-3.5,0-5.2c0.3,0,0.5,0,0.8,0c0,1.9,0,3.9,0,5.8
			c0,0.2,0.1,0.5,0.2,0.6c0.9,0.9,1.8,1.8,2.7,2.7c0.1,0.1,0.2,0.1,0.3,0.2c0-1.3,0-2.5,0-3.6c0-1.9,0-3.8,0-5.7c0.3,0,0.5,0,0.8,0
			c0,3.4,0,6.7,0,10c0,0.2,0.1,0.4,0.2,0.5c0.9,0.9,1.8,1.8,2.7,2.7c0.1,0.1,0.2,0.1,0.3,0.2c0-0.3,0-0.5,0-0.7c0-4.1,0-8.2,0-12.3
			c0-0.2,0-0.4,0-0.6c0.2,0,0.5,0,0.7,0c0,0.2,0,0.4,0,0.7c0,4.4,0,8.8,0,13.3c0,0.2,0,0.5,0.2,0.7c1.1,1.1,2.2,2.2,3.3,3.3
			c0,0.7,0,1.4,0,2.1c-1,1-1.9,2-2.9,3.1c0.9,0.9,1.9,1.9,2.9,2.9c0,0.4,0,0.7,0,1.1c-0.7-0.7-1.4-1.3-2.1-2c-0.5-0.5-1-1-1.4-1.4
			c-1.2,1.2-2.4,2.4-3.5,3.5c0,0,0.1,0.1,0.2,0.2c2.2,2.2,4.4,4.4,6.6,6.6c0.1,0.1,0.2,0.1,0.3,0.2c0,0.4,0,0.8,0,1.2
			c-0.1-0.1-0.3-0.2-0.4-0.3c-2.3-2.3-4.6-4.6-6.9-6.9c-0.2-0.2-0.2-0.3-0.3-0.4c-1.3,1.3-2.4,2.5-3.6,3.6c0,0,0.1,0.1,0.2,0.2
			c3.6,3.6,7.2,7.2,10.7,10.7c0.1,0.1,0.2,0.2,0.3,0.2c0,0.4,0,0.8,0,1.2c-0.2-0.2-0.3-0.3-0.4-0.4c-3.7-3.7-7.3-7.3-11-11
			c-0.2-0.2-0.3-0.3-0.3-0.3c-1.2,1.2-2.4,2.4-3.5,3.5c0.1,0.1,0.2,0.2,0.3,0.3c3.7,3.7,7.3,7.3,11,11c1.3,1.3,2.7,2.7,4,4
			c0,0.4,0,0.7,0,1.1c-0.1-0.1-0.3-0.2-0.4-0.3c-2.2-2.2-4.3-4.3-6.5-6.5c-0.1-0.1-0.2-0.3-0.2-0.5c0,0-0.1,0.1-0.2,0.2
			c0,4.8,0,9.5,0,14.3c0,0,0.1,0,0.1,0.1c0.1-0.1,0.2-0.3,0.3-0.4c2.2-2.2,4.3-4.3,6.4-6.4c0.1-0.1,0.3-0.2,0.4-0.3
			c0,0.4,0,0.7,0,1.1c-0.2,0.2-0.3,0.3-0.4,0.4c-2.5,2.5-5,5-7.5,7.5c-2.4,2.4-4.7,4.7-7.1,7.1c-0.1,0.1-0.2,0.3-0.3,0.3
			c1.2,1.2,2.4,2.4,3.6,3.6c0.1-0.2,0.2-0.3,0.3-0.5c3.7-3.7,7.3-7.4,11-11c0.1-0.1,0.3-0.2,0.4-0.3c0,0.4,0,0.8,0,1.2
			c-0.1,0.1-0.2,0.2-0.3,0.3c-3.5,3.5-7.1,7.1-10.6,10.6c-0.1,0.1-0.2,0.2-0.3,0.3c1.2,1.2,2.4,2.4,3.5,3.5c0.1-0.1,0.2-0.2,0.4-0.3
			c2.3-2.3,4.6-4.6,6.9-6.9c0.1-0.1,0.3-0.2,0.4-0.3c0,0.4,0,0.8,0,1.2c-0.1,0.1-0.2,0.2-0.3,0.2c-2.2,2.2-4.4,4.4-6.6,6.6
			c-0.1,0.1-0.2,0.2-0.2,0.2c1.2,1.2,2.4,2.4,3.5,3.5c0.8-0.8,1.8-1.8,2.7-2.7c0.3-0.3,0.5-0.5,0.8-0.7c0,0.4,0,0.7,0,1.1
			c-1,1-2,2-2.9,2.9c1,1,2,2,2.9,3c0,0.4,0,0.7,0,1.1c-0.1-0.1-0.3-0.2-0.4-0.3c-0.9-0.9-1.8-1.8-2.7-2.7c-0.1-0.1-0.2-0.2-0.4-0.3
			c0,0.3,0,0.5,0,0.7c0,5.9,0,11.8,0,17.7c0,4.5,0,9,0,13.6c0,0.2,0,0.5,0.2,0.7c1.1,1.1,2.2,2.2,3.3,3.3c0,0.7,0,1.4,0,2.1
			c-1,1-1.9,2-2.9,3.1c0.9,0.9,1.9,1.9,2.9,2.9c0,0.4,0,0.7,0,1.1c-0.7-0.7-1.4-1.3-2.1-2c-0.5-0.5-1-1-1.4-1.4
			c-1.2,1.2-2.4,2.4-3.5,3.5c0,0,0.1,0.1,0.2,0.2c2.2,2.2,4.4,4.4,6.6,6.6c0.1,0.1,0.2,0.1,0.3,0.2c0,0.4,0,0.8,0,1.2
			c-0.1-0.1-0.3-0.2-0.4-0.3c-2.3-2.3-4.6-4.6-6.9-6.9c-0.2-0.2-0.2-0.3-0.3-0.4c-1.3,1.3-2.4,2.5-3.6,3.6c0,0,0.1,0.1,0.2,0.2
			c3.6,3.6,7.2,7.2,10.7,10.7c0.1,0.1,0.2,0.2,0.3,0.2c0,0.4,0,0.8,0,1.2c-0.2-0.2-0.3-0.3-0.4-0.4c-3.7-3.7-7.3-7.3-11-11
			c-0.2-0.2-0.3-0.3-0.3-0.3c-1.2,1.2-2.4,2.4-3.5,3.5c0.1,0.1,0.2,0.2,0.3,0.3c3.7,3.7,7.3,7.3,11,11c1.3,1.3,2.7,2.7,4,4
			c0,0.4,0,0.7,0,1.1c-0.1-0.1-0.3-0.2-0.4-0.3c-2.2-2.2-4.3-4.3-6.5-6.5c-0.1-0.1-0.2-0.3-0.2-0.5c0,0-0.1,0.1-0.2,0.2
			c0,4.8,0,9.5,0,14.3c0,0,0.1,0,0.1,0c0.1-0.1,0.2-0.2,0.3-0.3c2.2-2.2,4.3-4.3,6.4-6.4c0.1-0.1,0.3-0.2,0.4-0.3c0,0.4,0,0.7,0,1.1
			c-0.2,0.2-0.3,0.3-0.4,0.4c-2.5,2.5-5,5-7.5,7.5c-2.4,2.4-4.7,4.7-7.1,7.1c-0.1,0.1-0.2,0.3-0.3,0.3c1.2,1.2,2.4,2.4,3.6,3.6
			c0.1-0.2,0.2-0.3,0.3-0.5c3.7-3.7,7.3-7.4,11-11c0.1-0.1,0.3-0.2,0.4-0.3c0,0.4,0,0.8,0,1.2c-0.1,0.1-0.2,0.2-0.3,0.3
			c-3.5,3.5-7.1,7.1-10.6,10.6c-0.1,0.1-0.2,0.2-0.3,0.3c1.2,1.2,2.4,2.4,3.5,3.5c0.1-0.1,0.2-0.2,0.4-0.3c2.3-2.3,4.6-4.6,6.9-6.9
			c0.1-0.1,0.3-0.2,0.4-0.3c0,0.4,0,0.8,0,1.2c-0.1,0.1-0.2,0.2-0.3,0.2c-2.2,2.2-4.4,4.4-6.6,6.6c-0.1,0.1-0.2,0.2-0.2,0.2
			c1.2,1.2,2.4,2.4,3.5,3.5c0.8-0.8,1.8-1.8,2.7-2.7c0.3-0.3,0.5-0.5,0.8-0.7c0,0.4,0,0.7,0,1.1c-1,1-2,2-2.9,2.9c1,1,2,2,2.9,3
			c0,0.4,0,0.7,0,1.1c-0.1-0.1-0.3-0.2-0.4-0.3c-0.9-0.9-1.8-1.8-2.7-2.7c-0.1-0.1-0.2-0.2-0.4-0.3c0,0.3,0,0.5,0,0.7
			c0,5.9,0,11.8,0,17.7c0,4.5,0,9,0,13.6c0,0.2,0,0.5,0.2,0.7c1.1,1.1,2.2,2.2,3.3,3.3c0,0.7,0,1.4,0,2.1c-1,1-1.9,2-2.9,3.1
			c0.9,0.9,1.9,1.9,2.9,2.9c0,0.4,0,0.7,0,1.1c-0.7-0.7-1.4-1.3-2.1-2c-0.5-0.5-1-1-1.4-1.4c-1.2,1.2-2.4,2.4-3.5,3.5
			c0,0,0.1,0.1,0.2,0.2c2.2,2.2,4.4,4.4,6.6,6.6c0.1,0.1,0.2,0.1,0.3,0.2c0,0.4,0,0.8,0,1.2c-0.1-0.1-0.3-0.2-0.4-0.3
			c-2.3-2.3-4.6-4.6-6.9-6.9c-0.2-0.2-0.2-0.3-0.3-0.4c-1.3,1.3-2.4,2.5-3.6,3.6c0,0,0.1,0.1,0.2,0.2c3.6,3.6,7.2,7.2,10.7,10.7
			c0.1,0.1,0.2,0.2,0.3,0.2c0,0.4,0,0.8,0,1.2c-0.2-0.2-0.3-0.3-0.4-0.4c-3.7-3.7-7.3-7.3-11-11c-0.2-0.2-0.3-0.3-0.3-0.3
			c-1.2,1.2-2.4,2.4-3.5,3.5c0.1,0.1,0.2,0.2,0.3,0.3c3.7,3.7,7.3,7.3,11,11c1.3,1.3,2.7,2.7,4,4c0,0.4,0,0.7,0,1.1
			c-0.1-0.1-0.3-0.2-0.4-0.3c-2.2-2.2-4.3-4.3-6.5-6.5c-0.1-0.1-0.2-0.3-0.2-0.5c0,0-0.1,0.1-0.2,0.2c0,4.8,0,9.5,0,14.4
			c0.2-0.2,0.3-0.3,0.4-0.4c2.2-2.2,4.3-4.3,6.4-6.4c0.1-0.1,0.3-0.2,0.4-0.3c0,0.4,0,0.7,0,1.1c-0.2,0.2-0.3,0.3-0.4,0.4
			c-2.5,2.5-5,5-7.5,7.5c-2.4,2.4-4.7,4.7-7.1,7.1c-0.1,0.1-0.2,0.3-0.3,0.3c1.2,1.2,2.4,2.4,3.6,3.6c0.1-0.2,0.2-0.3,0.3-0.5
			c3.7-3.7,7.3-7.4,11-11c0.1-0.1,0.3-0.2,0.4-0.3c0,0.4,0,0.8,0,1.2c-0.1,0.1-0.2,0.2-0.3,0.3c-3.5,3.5-7.1,7.1-10.6,10.6
			c-0.1,0.1-0.2,0.2-0.3,0.3c1.2,1.2,2.4,2.4,3.5,3.5c0.1-0.1,0.2-0.2,0.4-0.3c2.3-2.3,4.6-4.6,6.9-6.9c0.1-0.1,0.3-0.2,0.4-0.3
			c0,0.4,0,0.8,0,1.2c-0.1,0.1-0.2,0.2-0.3,0.2c-2.2,2.2-4.4,4.4-6.6,6.6c-0.1,0.1-0.2,0.2-0.2,0.2c1.2,1.2,2.4,2.4,3.5,3.5
			c0.9-0.9,1.8-1.8,2.7-2.7c0.3-0.3,0.5-0.5,0.8-0.7c0,0.4,0,0.7,0,1.1c-1,1-2,2-2.9,2.9c1,1,2,2,2.9,3c0,0.4,0,0.7,0,1.1
			c-0.1-0.1-0.3-0.2-0.4-0.3c-0.9-0.9-1.8-1.8-2.7-2.7c-0.1-0.1-0.2-0.2-0.4-0.3c0,0.3,0,0.5,0,0.7c0,5.9,0,11.8,0,17.7
			c0,4.5,0,9,0,13.6c0,0.2,0,0.5,0.2,0.7c1.1,1.1,2.2,2.2,3.3,3.3c0,0.7,0,1.4,0,2.1c-1,1-1.9,2-2.9,3.1c0.9,0.9,1.9,1.9,2.9,2.9
			c0,0.4,0,0.7,0,1.1c-0.7-0.7-1.4-1.3-2.1-2c-0.5-0.5-1-1-1.4-1.4c-1.2,1.2-2.4,2.4-3.5,3.5c0,0,0.1,0.1,0.2,0.2
			c2.2,2.2,4.4,4.4,6.6,6.6c0.1,0.1,0.2,0.1,0.3,0.2c0,0.4,0,0.8,0,1.2c-0.1-0.1-0.3-0.2-0.4-0.3c-2.3-2.3-4.6-4.6-6.9-6.9
			c-0.2-0.2-0.2-0.3-0.3-0.4c-1.3,1.3-2.4,2.5-3.6,3.6c0,0,0.1,0.1,0.2,0.2c3.6,3.6,7.2,7.2,10.7,10.7c0.1,0.1,0.2,0.2,0.3,0.2
			c0,0.4,0,0.8,0,1.2c-0.2-0.2-0.3-0.3-0.4-0.4c-3.7-3.7-7.3-7.3-11-11c-0.2-0.2-0.3-0.3-0.3-0.3c-1.2,1.2-2.4,2.4-3.5,3.5
			c0.1,0.1,0.2,0.2,0.3,0.3c3.7,3.7,7.3,7.3,11,11c1.3,1.3,2.7,2.7,4,4c0,0.4,0,0.7,0,1.1c-0.1-0.1-0.3-0.2-0.4-0.3
			c-2.2-2.2-4.3-4.3-6.5-6.5c-0.1-0.1-0.2-0.3-0.2-0.5c0,0-0.1,0.1-0.2,0.2c0,4.8,0,9.5,0,14.3c0,0,0.1,0,0.1,0.1
			c0.1-0.1,0.2-0.3,0.3-0.4c2.2-2.2,4.3-4.3,6.4-6.4c0.1-0.1,0.3-0.2,0.4-0.3c0,0.4,0,0.7,0,1.1c-0.2,0.2-0.3,0.3-0.4,0.4
			c-2.5,2.5-5,5-7.5,7.5c-2.4,2.4-4.7,4.7-7.1,7.1c-0.1,0.1-0.2,0.3-0.3,0.3c1.2,1.2,2.4,2.4,3.6,3.6c0.1-0.2,0.2-0.3,0.3-0.5
			c3.7-3.7,7.3-7.4,11-11c0.1-0.1,0.3-0.2,0.4-0.3c0,0.4,0,0.8,0,1.2c-0.1,0.1-0.2,0.2-0.3,0.3c-3.5,3.5-7.1,7.1-10.6,10.6
			c-0.1,0.1-0.2,0.2-0.3,0.3c1.2,1.2,2.4,2.4,3.5,3.5c0.1-0.1,0.2-0.2,0.4-0.3c2.3-2.3,4.6-4.6,6.9-6.9c0.1-0.1,0.3-0.2,0.4-0.3
			c0,0.4,0,0.8,0,1.2c-0.1,0.1-0.2,0.2-0.3,0.2c-2.2,2.2-4.4,4.4-6.6,6.6c-0.1,0.1-0.2,0.2-0.2,0.2c1.2,1.2,2.4,2.4,3.5,3.5
			c0.9-0.9,1.8-1.8,2.7-2.7c0.3-0.3,0.5-0.5,0.8-0.7c0,0.4,0,0.7,0,1.1c-1,1-2,2-2.9,2.9c1,1,2,2,2.9,3c0,0.4,0,0.7,0,1.1
			c-0.1-0.1-0.3-0.2-0.4-0.3c-0.9-0.9-1.8-1.8-2.7-2.7c-0.1-0.1-0.2-0.2-0.4-0.3c0,0.3,0,0.5,0,0.7c0,5.9,0,11.8,0,17.7
			c0,4.5,0,9,0,13.6c0,0.2,0,0.5,0.2,0.7c1.1,1.1,2.2,2.2,3.3,3.3c0,0.7,0,1.4,0,2.1c-1,1-1.9,2-2.9,3.1c0.9,0.9,1.9,1.9,2.9,2.9
			c0,0.4,0,0.7,0,1.1c-0.7-0.7-1.4-1.3-2.1-2c-0.5-0.5-1-1-1.4-1.4c-1.2,1.2-2.4,2.4-3.5,3.5c0,0,0.1,0.1,0.2,0.2
			c2.2,2.2,4.4,4.4,6.6,6.6c0.1,0.1,0.2,0.1,0.3,0.2c0,0.4,0,0.8,0,1.2c-0.1-0.1-0.3-0.2-0.4-0.3c-2.3-2.3-4.6-4.6-6.9-6.9
			c-0.2-0.2-0.2-0.3-0.3-0.4c-1.3,1.3-2.4,2.5-3.6,3.6c0,0,0.1,0.1,0.2,0.2c3.6,3.6,7.2,7.2,10.7,10.7c0.1,0.1,0.2,0.2,0.3,0.2
			c0,0.4,0,0.8,0,1.2c-0.2-0.2-0.3-0.3-0.4-0.4c-3.7-3.7-7.3-7.3-11-11c-0.2-0.2-0.2-0.3-0.3-0.4c-1.3,1.3-2.4,2.4-3.7,3.7
			c0.1,0.1,0.2,0.2,0.3,0.3c2.6,2.6,5.2,5.2,7.7,7.7c0.1,0.1,0.2,0.3,0.3,0.4c-0.4,0-0.8,0-1.2,0c-0.1-0.1-0.2-0.3-0.3-0.4
			c-0.8-0.8-1.6-1.6-2.4-2.4c-0.1-0.2-0.2-0.3-0.3-0.5c-0.1,0-0.2,0.1-0.2,0.2c0,1,0,2.1,0,3.2c-0.3,0-0.5,0-0.8,0
			c0-1.3,0-2.5,0-3.8c0-0.2-0.1-0.5-0.2-0.6c-1-1-1.9-2-2.9-2.9C2.2,836,2.2,836,2,835.9c0,0.3,0,0.4,0,0.6c0,2.3,0,4.6,0,6.9
			c-0.4,0-0.8,0-1.2,0c0-0.4,0-0.8,0-1.3c0.1,0,0.2,0.1,0.3,0.2c0-2.2,0-4.4,0-6.6c-0.2,0-0.2,0.1-0.3,0.2c0-0.7,0-1.3,0-2
			c0.2,0.2,0.4,0.4,0.6,0.5c1.2-1.2,2.4-2.4,3.5-3.5c-1.3-1.3-2.7-2.7-4-4.2c0-0.4,0-0.7,0-1.1c0.1,0.1,0.3,0.2,0.4,0.3
			c1.3,1.3,2.7,2.7,4,4c0.1,0.1,0.2,0.2,0.3,0.3c1.2-1.2,2.4-2.4,3.6-3.6c-0.3-0.3-0.7-0.6-1-0.9c-2.4-2.4-4.9-4.9-7.3-7.3
			c0-0.4,0-0.7,0-1.1c0.2,0.1,0.3,0.2,0.4,0.3c2.7,2.7,5.4,5.4,8.2,8.2c0.1,0.1,0.2,0.2,0.3,0.3c1.2-1.2,2.4-2.4,3.6-3.6
			c-4.1-4.1-8.3-8.2-12.4-12.4c0-0.4,0-0.7,0-1.1c0.2,0.1,0.3,0.2,0.5,0.4c4.1,4.1,8.2,8.2,12.3,12.3c0.1,0.1,0.3,0.2,0.3,0.3
			c1.2-1.2,2.4-2.4,3.5-3.5c-5.3-5.3-10.7-10.7-16.1-16.1c-0.1,0.1-0.3,0.2-0.4,0.3c0-0.4,0-0.7,0-1.1c0-0.1,0.1-0.3,0.1-0.4
			c0-2.2,0-4.4,0-6.5c0-0.1,0-0.3-0.1-0.4c0-0.7,0-1.4,0-2.1c0.2,0.2,0.3,0.3,0.5,0.4c4-4,8-8,11.9-11.9c-1.1-1.2-2.3-2.3-3.5-3.5
			c-2.7,2.7-5.5,5.5-8.3,8.4c-0.2-0.2-0.3-0.3-0.5-0.4c0-0.4,0-0.7,0-1.1c0.2,0.1,0.3,0.2,0.5,0.3c2.6-2.6,5.2-5.2,7.7-7.7
			c-1.2-1.2-2.3-2.3-3.5-3.5c-1.3,1.3-2.8,2.8-4.2,4.2c-0.2-0.1-0.3-0.2-0.5-0.3c0-0.4,0-0.8,0-1.2c0.2,0.1,0.3,0.3,0.5,0.3
			c1.2-1.2,2.4-2.4,3.6-3.6c-1.1-1.1-2.3-2.3-3.5-3.5c-0.2,0.2-0.3,0.3-0.5,0.5c0-0.7,0-1.4,0-2.1c0.1,0.1,0.2,0.1,0.4,0.2
			c0-0.3,0-0.4,0-0.6c0-2,0-4.1,0-6.1c0-0.3-0.1-0.5-0.4-0.7c0-0.4,0-0.7,0-1.1c0.1,0,0.2,0.1,0.4,0.2c0-0.2,0-0.4,0-0.5
			c0-2,0-4,0-6c0-0.3,0-0.6-0.4-0.8c0-0.4,0-0.7,0-1.1c0.1,0,0.2,0.1,0.4,0.2c0-0.2,0-0.4,0-0.6c0-2,0-4,0-6c0-0.3,0-0.7-0.4-0.8
			c0-0.4,0-0.7,0-1.1c0.1,0,0.2,0.1,0.3,0.2c0-2.2,0-4.4,0-6.6c-0.2,0-0.2,0.1-0.3,0.2c0-0.7,0-1.3,0-2c0.2,0.2,0.4,0.4,0.6,0.5
			c1.2-1.2,2.4-2.4,3.5-3.5c-1.3-1.3-2.7-2.7-4-4.2c0-0.4,0-0.7,0-1.1c0.1,0.1,0.3,0.2,0.4,0.3c1.3,1.3,2.7,2.7,4,4
			c0.1,0.1,0.2,0.2,0.3,0.3c1.2-1.2,2.4-2.4,3.6-3.6c-0.3-0.3-0.7-0.6-1-0.9c-2.4-2.4-4.9-4.9-7.3-7.3c0-0.4,0-0.7,0-1.1
			c0.2,0.1,0.3,0.2,0.4,0.3c2.7,2.7,5.4,5.4,8.2,8.2c0.1,0.1,0.2,0.2,0.3,0.3c1.2-1.2,2.4-2.4,3.6-3.5c-4.1-4.1-8.3-8.2-12.4-12.4
			c0-0.4,0-0.7,0-1.1c0.2,0.1,0.3,0.2,0.5,0.4c4.1,4.1,8.2,8.2,12.3,12.3c0.1,0.1,0.3,0.2,0.3,0.3c1.2-1.2,2.4-2.4,3.5-3.5
			C12,713.4,6.6,708,1.2,702.7c-0.1,0.1-0.3,0.2-0.4,0.3c0-0.4,0-0.7,0-1.1c0-0.1,0.1-0.3,0.1-0.4c0-2.2,0-4.4,0-6.5
			c0-0.1,0-0.3-0.1-0.4c0-0.7,0-1.4,0-2.1c0.2,0.2,0.3,0.3,0.5,0.4c4-4,8-8,11.9-11.9c-1.2-1.2-2.3-2.3-3.5-3.5
			c-2.7,2.7-5.5,5.5-8.3,8.4C0.2,685.4,0,685.2-0.1,685.1z M1.1,767.1c0.1,0,0.1,0,0.2-0.1c1-1,2-2,3-3c0.1-0.1,0.2-0.3,0.2-0.5
			c0-7.9,0-15.8,0-23.8c0-0.2-0.1-0.4-0.2-0.5c-1-1-2-2-3-3c0,0-0.1,0-0.2-0.1C1.1,746.4,1.1,756.7,1.1,767.1z M1.1,436.6
			c0,10.4,0,20.7,0,31.1c0.1,0,0.2-0.1,0.2-0.1c1-1,2-2,3-3c0.1-0.1,0.2-0.3,0.2-0.5c0-7.9,0-15.8,0-23.7c0-0.2,0-0.3-0.1-0.5
			C3.3,438.8,2.3,437.8,1.1,436.6z M1.1,667.3c0.1,0,0.2-0.1,0.2-0.1c1-1,2-2,3-3c0.1-0.1,0.2-0.3,0.2-0.5c0-7.9,0-15.8,0-23.7
			c0-0.2-0.1-0.5-0.3-0.7c-0.9-1-1.8-1.9-2.8-2.8c-0.1-0.1-0.2-0.2-0.3-0.2C1.1,646.6,1.1,656.9,1.1,667.3z M1.1,536.4
			c0,10.4,0,20.7,0,31.1c0.1,0,0.1,0,0.2-0.1c1-1,2-2,3.1-3.1c0.1-0.1,0.2-0.3,0.2-0.5c0-7.9,0-15.8,0-23.7c0-0.2,0-0.3-0.1-0.5
			C3.3,538.6,2.3,537.6,1.1,536.4z M12.4,781.7c-1,1-2,2-3,3c-0.2,0.2-0.3,0.5-0.3,0.7c0,8,0,15.9,0,23.9c0,0.2,0.1,0.5,0.3,0.7
			c0.9,0.9,1.8,1.8,2.7,2.7c0.1,0.1,0.2,0.2,0.3,0.3C12.4,802.5,12.4,792.1,12.4,781.7z M12.4,513.6c0-10.5,0-20.8,0-31.3
			c-1,1-1.9,1.9-2.9,2.9c-0.3,0.3-0.4,0.6-0.4,1c0,7.7,0,15.5,0,23.2c0,0.7,0.2,1.2,0.7,1.7C10.7,511.8,11.5,512.7,12.4,513.6z
			 M12.3,613.4c0-10.5,0-20.8,0-31.3c-1,1-1.9,1.9-2.9,2.9c-0.3,0.3-0.4,0.6-0.4,1c0,7.3,0,14.7,0,22c0,0.7-0.2,1.5,0.1,2.1
			c0.3,0.6,0.9,1,1.4,1.5C11.2,612.2,11.7,612.8,12.3,613.4z M12.4,681.9c-1,1-1.8,1.9-2.8,2.8c-0.4,0.3-0.5,0.7-0.5,1.2
			c0,1.9,0,3.9,0,5.8c0,5.9,0,11.8,0,17.6c0,0.4,0.1,0.7,0.4,0.9c0.7,0.7,1.5,1.5,2.2,2.2c0.2,0.2,0.4,0.5,0.6,0.7
			c0,0,0.1-0.1,0.1-0.1C12.4,702.7,12.4,692.3,12.4,681.9z M8.1,609.2c0,0,0.1-0.1,0.1-0.1c0-7.6,0-15.2,0-22.8
			c-0.1,0-0.1,0-0.2,0.1c-1,1-2,2-2.9,2.9C5,589.4,5,589.7,5,589.8c0,5.2,0,10.5,0,15.7c0,0.2,0.1,0.5,0.3,0.7
			c0.7,0.8,1.5,1.5,2.2,2.2C7.7,608.7,7.9,609,8.1,609.2z M8.2,509.5c0-7.7,0-15.3,0-23c-0.2,0.2-0.3,0.2-0.4,0.3
			c-0.8,0.8-1.6,1.6-2.4,2.4c-0.3,0.3-0.5,0.7-0.5,1.1c0,4.9,0,9.7,0,14.5c0,1,0.2,1.7,1,2.3C6.7,507.9,7.4,508.6,8.2,509.5z
			 M8.1,709c0,0,0.1-0.1,0.2-0.1c0-7.6,0-15.2,0-22.8c-0.1,0-0.1,0-0.2,0.1c-1,1-2,2-2.9,2.9C5,689.3,5,689.5,5,689.6
			c0,5.3,0,10.5,0,15.8c0,0.2,0.1,0.4,0.3,0.6c0.6,0.7,1.2,1.2,1.8,1.9C7.4,708.3,7.8,708.6,8.1,709z M8.2,785.9
			c-0.1,0-0.1,0-0.2,0.1c-1,1-2,2-2.9,2.9C5,789,5,789.3,5,789.4c0,5.2,0,10.5,0,15.7c0,0.2,0.1,0.5,0.3,0.7
			c0.7,0.8,1.5,1.5,2.2,2.2c0.2,0.2,0.4,0.5,0.7,0.8c0,0,0.1-0.1,0.1-0.1C8.2,801.1,8.2,793.5,8.2,785.9z M5.4,640.4
			c0,7.6,0,15.1,0,22.7c1-1,2-2,3-3c0.1-0.1,0.2-0.3,0.2-0.5c0-5.2,0-10.4,0-15.6c0-0.2,0-0.3-0.2-0.5
			C7.4,642.5,6.5,641.5,5.4,640.4z M5.4,540.7c0,7.6,0,15.1,0,22.6c1-1,2-2,3-3c0.1-0.1,0.2-0.3,0.2-0.5c0-5.2,0-10.4,0-15.6
			c0-0.2,0-0.3-0.2-0.5C7.4,542.7,6.4,541.7,5.4,540.7z M5.3,762.9c0.1-0.1,0.2-0.1,0.2-0.2c0.9-0.9,1.9-1.8,2.8-2.8
			c0.1-0.1,0.2-0.4,0.2-0.6c0-5.2,0-10.3,0-15.5c0-0.2-0.1-0.5-0.3-0.7c-0.8-0.9-1.7-1.7-2.6-2.6c-0.1-0.1-0.2-0.2-0.3-0.2
			C5.3,747.8,5.3,755.3,5.3,762.9z M5.4,463.5c1.1-1.1,2.1-2,3-3c0.1-0.1,0.2-0.3,0.2-0.5c0-5.2,0-10.4,0-15.5
			c0-0.2-0.1-0.5-0.3-0.7c-0.7-0.7-1.4-1.4-2.2-2.2c-0.2-0.2-0.4-0.5-0.6-0.7c0,0-0.1,0.1-0.1,0.1C5.4,448.5,5.4,455.9,5.4,463.5z
			 M4.1,690.2c-0.2,0.2-0.3,0.2-0.3,0.3c-0.9,0.9-1.8,1.7-2.6,2.7c-0.2,0.2-0.3,0.5-0.3,0.7c0,2.5,0,4.9,0,7.4
			c0,0.2,0.1,0.5,0.3,0.7c0.8,0.9,1.8,1.8,2.6,2.7c0.1,0.1,0.2,0.2,0.3,0.3C4.1,699.9,4.1,695.1,4.1,690.2z M4.1,605.1
			c0-4.9,0-9.7,0-14.6c-0.1,0.1-0.2,0.1-0.2,0.2c-1,1-1.9,1.9-2.9,2.9c-0.1,0.1-0.2,0.3-0.2,0.5c0,2.5,0,5,0,7.4
			c0,0.2,0.1,0.5,0.3,0.6c0.8,0.9,1.7,1.7,2.6,2.6C3.8,604.8,3.9,604.9,4.1,605.1z M4.1,490.7c-0.1,0-0.2,0.1-0.2,0.1
			c-1,1-2,2-2.9,2.9c-0.1,0.1-0.2,0.3-0.2,0.5c0,2.5,0,4.9,0,7.4c0,0.2,0.1,0.5,0.3,0.7c0.9,0.9,1.8,1.8,2.7,2.7
			c0.1,0.1,0.2,0.2,0.3,0.2C4.1,500.4,4.1,495.6,4.1,490.7z M4.1,804.6c0-4.9,0-9.7,0-14.6c-0.1,0.1-0.2,0.1-0.2,0.2
			c-1,1-1.9,1.9-2.9,2.9c-0.1,0.1-0.2,0.3-0.2,0.5c0,2.5,0,5,0,7.4c0,0.2,0.1,0.5,0.3,0.6c0.8,0.9,1.7,1.7,2.6,2.6
			C3.8,804.3,3.9,804.4,4.1,804.6z"/>
	</g>
</g>
</svg>
