<svg width="160" height="50" viewBox="0 0 160 50" fill="none" xmlns="http://www.w3.org/2000/svg">
<path d="M54 44.46V36.76H56.651C57.2597 36.76 57.7583 36.8627 58.147 37.068C58.543 37.2733 58.8363 37.552 59.027 37.904C59.2177 38.2487 59.313 38.6337 59.313 39.059C59.313 39.5357 59.1847 39.9683 58.928 40.357C58.6787 40.7457 58.2863 41.0243 57.751 41.193L59.39 44.46H58.037L56.541 41.358H55.166V44.46H54ZM55.166 40.478H56.585C57.113 40.478 57.498 40.3497 57.74 40.093C57.9893 39.8363 58.114 39.5027 58.114 39.092C58.114 38.6813 57.993 38.355 57.751 38.113C57.509 37.8637 57.1167 37.739 56.574 37.739H55.166V40.478Z" fill="#E4C590"/>
<path d="M64.6524 44.46V36.76H69.5474V37.706H65.8184V40.104H69.2174V41.028H65.8184V43.514H69.5474V44.46H64.6524Z" fill="#E4C590"/>
<path d="M77.4376 44.592C76.8729 44.592 76.3779 44.493 75.9526 44.295C75.5272 44.097 75.1936 43.8147 74.9516 43.448C74.7169 43.0813 74.5959 42.645 74.5886 42.139H75.8206C75.8279 42.5497 75.9709 42.898 76.2496 43.184C76.5282 43.47 76.9206 43.613 77.4266 43.613C77.8739 43.613 78.2222 43.5067 78.4716 43.294C78.7282 43.074 78.8566 42.7953 78.8566 42.458C78.8566 42.1867 78.7942 41.9667 78.6696 41.798C78.5522 41.6293 78.3872 41.49 78.1746 41.38C77.9692 41.27 77.7309 41.171 77.4596 41.083C77.1882 40.995 76.9022 40.8997 76.6016 40.797C76.0076 40.599 75.5602 40.3423 75.2596 40.027C74.9662 39.7117 74.8196 39.2973 74.8196 38.784C74.8122 38.3513 74.9112 37.9737 75.1166 37.651C75.3292 37.3283 75.6226 37.079 75.9966 36.903C76.3779 36.7197 76.8216 36.628 77.3276 36.628C77.8262 36.628 78.2626 36.7197 78.6366 36.903C79.0179 37.0863 79.3149 37.343 79.5276 37.673C79.7402 37.9957 79.8502 38.3733 79.8576 38.806H78.6256C78.6256 38.608 78.5742 38.421 78.4716 38.245C78.3689 38.0617 78.2186 37.9113 78.0206 37.794C77.8226 37.6767 77.5806 37.618 77.2946 37.618C76.9279 37.6107 76.6236 37.7023 76.3816 37.893C76.1469 38.0837 76.0296 38.3477 76.0296 38.685C76.0296 38.9857 76.1176 39.2167 76.2936 39.378C76.4696 39.5393 76.7116 39.675 77.0196 39.785C77.3276 39.8877 77.6796 40.0087 78.0756 40.148C78.4569 40.2727 78.7979 40.423 79.0986 40.599C79.3992 40.775 79.6376 41.006 79.8136 41.292C79.9969 41.578 80.0886 41.941 80.0886 42.381C80.0886 42.7697 79.9896 43.1327 79.7916 43.47C79.5936 43.8 79.2966 44.0713 78.9006 44.284C78.5046 44.4893 78.0169 44.592 77.4376 44.592Z" fill="#E4C590"/>
<path d="M86.9877 44.46V37.706H84.7107V36.76H90.4197V37.706H88.1537V44.46H86.9877Z" fill="#E4C590"/>
<path d="M94.138 44.46L96.976 36.76H98.252L101.068 44.46H99.836L99.176 42.579H96.03L95.37 44.46H94.138ZM96.36 41.655H98.846L97.603 38.146L96.36 41.655Z" fill="#E4C590"/>
<path d="M108.651 44.592C108.101 44.592 107.602 44.4857 107.155 44.273C106.715 44.053 106.363 43.7193 106.099 43.272C105.842 42.8247 105.714 42.2563 105.714 41.567V36.76H106.88V41.578C106.88 42.2527 107.041 42.7477 107.364 43.063C107.686 43.3783 108.123 43.536 108.673 43.536C109.215 43.536 109.648 43.3783 109.971 43.063C110.293 42.7477 110.455 42.2527 110.455 41.578V36.76H111.621V41.567C111.621 42.2563 111.485 42.8247 111.214 43.272C110.95 43.7193 110.59 44.053 110.136 44.273C109.688 44.4857 109.193 44.592 108.651 44.592Z" fill="#E4C590"/>
<path d="M117.076 44.46V36.76H119.727C120.336 36.76 120.835 36.8627 121.223 37.068C121.619 37.2733 121.913 37.552 122.103 37.904C122.294 38.2487 122.389 38.6337 122.389 39.059C122.389 39.5357 122.261 39.9683 122.004 40.357C121.755 40.7457 121.363 41.0243 120.827 41.193L122.466 44.46H121.113L119.617 41.358H118.242V44.46H117.076ZM118.242 40.478H119.661C120.189 40.478 120.574 40.3497 120.816 40.093C121.066 39.8363 121.19 39.5027 121.19 39.092C121.19 38.6813 121.069 38.355 120.827 38.113C120.585 37.8637 120.193 37.739 119.65 37.739H118.242V40.478Z" fill="#E4C590"/>
<path d="M127.234 44.46L130.072 36.76H131.348L134.164 44.46H132.932L132.272 42.579H129.126L128.466 44.46H127.234ZM129.456 41.655H131.942L130.699 38.146L129.456 41.655Z" fill="#E4C590"/>
<path d="M139.198 44.46V36.76H140.364L144.225 42.557V36.76H145.391V44.46H144.225L140.364 38.663V44.46H139.198Z" fill="#E4C590"/>
<path d="M152.717 44.46V37.706H150.44V36.76H156.149V37.706H153.883V44.46H152.717Z" fill="#E4C590"/>
<mask id="path-2-outside-1_29_6" maskUnits="userSpaceOnUse" x="53" y="5" width="104" height="28" fill="black">
<rect fill="white" x="53" y="5" width="104" height="28"/>
<path d="M70.644 18.236H76.078V18.616H75.888C75.6853 18.616 75.508 18.692 75.356 18.844C75.204 18.9707 75.0773 19.1353 74.976 19.338C74.8747 19.5407 74.786 19.756 74.71 19.984C74.6593 20.212 74.634 20.4147 74.634 20.592V30.776C74.178 30.9533 73.6587 31.1053 73.076 31.232C72.4933 31.3587 71.8853 31.46 71.252 31.536C70.6187 31.6373 69.9727 31.7133 69.314 31.764C68.6553 31.8147 68.0473 31.84 67.49 31.84C65.21 31.84 63.2213 31.46 61.524 30.7C59.8267 29.94 58.4207 28.952 57.306 27.736C56.1913 26.4947 55.3553 25.1013 54.798 23.556C54.266 22.0107 54 20.4527 54 18.882C54 17.3113 54.266 15.7533 54.798 14.208C55.3553 12.6627 56.1913 11.282 57.306 10.066C58.446 8.85 59.8647 7.87467 61.562 7.14C63.2847 6.38 65.324 6 67.68 6C68.5667 6 69.39 6.076 70.15 6.228C70.91 6.38 71.5813 6.51933 72.164 6.646C72.4933 6.722 72.772 6.798 73 6.874C73.2533 6.92467 73.4687 6.95 73.646 6.95H73.988V10.978H73.608C73.456 10.1927 73.152 9.55933 72.696 9.078C72.2653 8.59667 71.7587 8.22933 71.176 7.976C70.5933 7.72267 69.9727 7.558 69.314 7.482C68.6807 7.38067 68.0853 7.33 67.528 7.33C65.628 7.33 63.9813 7.672 62.588 8.356C61.1947 9.01467 60.0547 9.876 59.168 10.94C58.2813 12.004 57.6227 13.2073 57.192 14.55C56.7613 15.8673 56.546 17.1847 56.546 18.502C56.546 19.9713 56.8247 21.428 57.382 22.872C57.9393 24.2907 58.7247 25.57 59.738 26.71C60.7513 27.8247 61.9673 28.7367 63.386 29.446C64.83 30.13 66.426 30.472 68.174 30.472C68.6553 30.472 69.2507 30.4213 69.96 30.32C70.6693 30.1933 71.3787 29.9273 72.088 29.522V20.592C72.088 20.4147 72.0627 20.212 72.012 19.984C71.9613 19.756 71.8727 19.5407 71.746 19.338C71.6447 19.1353 71.518 18.9707 71.366 18.844C71.214 18.692 71.0367 18.616 70.834 18.616H70.644V18.236Z"/>
<path d="M85.5866 31.08H85.7766V31.46H80.4186V31.08H80.6086C80.7859 31.08 80.9506 31.004 81.1026 30.852C81.2546 30.7 81.3813 30.5227 81.4826 30.32C81.6093 30.1173 81.6979 29.902 81.7486 29.674C81.7993 29.4207 81.8246 29.1927 81.8246 28.99V8.736C81.8246 8.55867 81.7993 8.356 81.7486 8.128C81.6979 7.9 81.6093 7.68467 81.4826 7.482C81.3813 7.27933 81.2546 7.11467 81.1026 6.988C80.9506 6.836 80.7859 6.76 80.6086 6.76H80.4186V6.38H87.0306C89.5639 6.38 91.5146 6.874 92.8826 7.862C94.2759 8.85 94.9726 10.3067 94.9726 12.232C94.9726 13.1947 94.8079 14.0433 94.4786 14.778C94.1746 15.4873 93.7566 16.108 93.2246 16.64C92.6926 17.1467 92.0593 17.5647 91.3246 17.894C90.6153 18.198 89.8553 18.426 89.0446 18.578L91.7806 22.758C92.4393 23.7713 93.1106 24.772 93.7946 25.76C94.4786 26.7227 95.1499 27.7233 95.8086 28.762C95.9859 29.0153 96.1759 29.2813 96.3786 29.56C96.6066 29.8387 96.8346 30.092 97.0626 30.32C97.3159 30.548 97.5693 30.738 97.8226 30.89C98.1013 31.0167 98.3799 31.08 98.6586 31.08V31.46H97.0246C96.0113 31.46 95.1753 31.2193 94.5166 30.738C93.8833 30.2313 93.3513 29.6487 92.9206 28.99C91.7806 27.318 90.6406 25.6207 89.5006 23.898C88.3859 22.1753 87.2713 20.478 86.1566 18.806C85.8779 18.7807 85.5739 18.7553 85.2446 18.73C84.9406 18.6793 84.6493 18.6287 84.3706 18.578V28.99C84.3706 29.1927 84.3959 29.4207 84.4466 29.674C84.4973 29.902 84.5733 30.1173 84.6746 30.32C84.8013 30.5227 84.9279 30.7 85.0546 30.852C85.2066 31.004 85.3839 31.08 85.5866 31.08ZM84.3706 7.672V17.324H84.5606C84.7633 17.3493 85.0799 17.3747 85.5106 17.4C85.9666 17.4 86.5239 17.4 87.1826 17.4C87.7146 17.4 88.2719 17.324 88.8546 17.172C89.4626 16.9947 90.0199 16.716 90.5266 16.336C91.0586 15.9307 91.4893 15.4113 91.8186 14.778C92.1733 14.1447 92.3506 13.3467 92.3506 12.384C92.3506 11.4213 92.1606 10.636 91.7806 10.028C91.4259 9.42 90.9193 8.93867 90.2606 8.584C89.6273 8.22933 88.8546 7.98867 87.9426 7.862C87.0306 7.73533 86.0299 7.672 84.9406 7.672H84.3706Z"/>
<path d="M102.232 6.38H107.666V6.76H107.476C107.299 6.76 107.134 6.836 106.982 6.988C106.83 7.11467 106.703 7.27933 106.602 7.482C106.501 7.65933 106.412 7.87467 106.336 8.128C106.285 8.356 106.26 8.55867 106.26 8.736V28.99C106.26 29.1927 106.285 29.4207 106.336 29.674C106.387 29.902 106.463 30.1173 106.564 30.32C106.691 30.5227 106.817 30.7 106.944 30.852C107.096 31.004 107.273 31.08 107.476 31.08H107.666V31.46H102.232V31.08H102.422C102.625 31.08 102.802 31.0167 102.954 30.89C103.106 30.738 103.233 30.5607 103.334 30.358C103.461 30.13 103.549 29.902 103.6 29.674C103.651 29.4207 103.676 29.1927 103.676 28.99V8.736C103.676 8.55867 103.651 8.356 103.6 8.128C103.549 7.9 103.461 7.68467 103.334 7.482C103.233 7.27933 103.106 7.11467 102.954 6.988C102.802 6.836 102.625 6.76 102.422 6.76H102.232V6.38Z"/>
<path d="M112.46 31.08H112.65C112.853 31.08 113.03 31.0167 113.182 30.89C113.334 30.738 113.461 30.5607 113.562 30.358C113.689 30.1553 113.778 29.94 113.828 29.712C113.904 29.484 113.942 29.2687 113.942 29.066V8.736C113.942 8.55867 113.904 8.356 113.828 8.128C113.778 7.9 113.689 7.68467 113.562 7.482C113.461 7.27933 113.334 7.11467 113.182 6.988C113.03 6.836 112.853 6.76 112.65 6.76H112.46V6.38H117.932V6.76H117.742C117.54 6.76 117.362 6.836 117.21 6.988C117.058 7.11467 116.932 7.27933 116.83 7.482C116.729 7.68467 116.64 7.9 116.564 8.128C116.514 8.356 116.488 8.55867 116.488 8.736V30.054H124.81C125.292 30.054 125.71 29.94 126.064 29.712C126.419 29.484 126.71 29.2053 126.938 28.876C127.192 28.5213 127.369 28.154 127.47 27.774C127.597 27.3687 127.66 27.0013 127.66 26.672H128.04V31.46H112.46V31.08Z"/>
<path d="M131.264 31.08H131.454C131.657 31.08 131.834 31.0167 131.986 30.89C132.138 30.738 132.265 30.5607 132.366 30.358C132.493 30.1553 132.582 29.94 132.632 29.712C132.708 29.484 132.746 29.2687 132.746 29.066V8.736C132.746 8.55867 132.708 8.356 132.632 8.128C132.582 7.9 132.493 7.68467 132.366 7.482C132.265 7.27933 132.138 7.11467 131.986 6.988C131.834 6.836 131.657 6.76 131.454 6.76H131.264V6.38H136.736V6.76H136.546C136.344 6.76 136.166 6.836 136.014 6.988C135.862 7.11467 135.736 7.27933 135.634 7.482C135.533 7.68467 135.444 7.9 135.368 8.128C135.318 8.356 135.292 8.55867 135.292 8.736V30.054H143.614C144.096 30.054 144.514 29.94 144.868 29.712C145.223 29.484 145.514 29.2053 145.742 28.876C145.996 28.5213 146.173 28.154 146.274 27.774C146.401 27.3687 146.464 27.0013 146.464 26.672H146.844V31.46H131.264V31.08Z"/>
<path d="M150.22 6.38H155.654V6.76H155.464C155.287 6.76 155.122 6.836 154.97 6.988C154.818 7.11467 154.692 7.27933 154.59 7.482C154.489 7.65933 154.4 7.87467 154.324 8.128C154.274 8.356 154.248 8.55867 154.248 8.736V28.99C154.248 29.1927 154.274 29.4207 154.324 29.674C154.375 29.902 154.451 30.1173 154.552 30.32C154.679 30.5227 154.806 30.7 154.932 30.852C155.084 31.004 155.262 31.08 155.464 31.08H155.654V31.46H150.22V31.08H150.41C150.613 31.08 150.79 31.0167 150.942 30.89C151.094 30.738 151.221 30.5607 151.322 30.358C151.449 30.13 151.538 29.902 151.588 29.674C151.639 29.4207 151.664 29.1927 151.664 28.99V8.736C151.664 8.55867 151.639 8.356 151.588 8.128C151.538 7.9 151.449 7.68467 151.322 7.482C151.221 7.27933 151.094 7.11467 150.942 6.988C150.79 6.836 150.613 6.76 150.41 6.76H150.22V6.38Z"/>
</mask>
<path d="M70.644 18.236H76.078V18.616H75.888C75.6853 18.616 75.508 18.692 75.356 18.844C75.204 18.9707 75.0773 19.1353 74.976 19.338C74.8747 19.5407 74.786 19.756 74.71 19.984C74.6593 20.212 74.634 20.4147 74.634 20.592V30.776C74.178 30.9533 73.6587 31.1053 73.076 31.232C72.4933 31.3587 71.8853 31.46 71.252 31.536C70.6187 31.6373 69.9727 31.7133 69.314 31.764C68.6553 31.8147 68.0473 31.84 67.49 31.84C65.21 31.84 63.2213 31.46 61.524 30.7C59.8267 29.94 58.4207 28.952 57.306 27.736C56.1913 26.4947 55.3553 25.1013 54.798 23.556C54.266 22.0107 54 20.4527 54 18.882C54 17.3113 54.266 15.7533 54.798 14.208C55.3553 12.6627 56.1913 11.282 57.306 10.066C58.446 8.85 59.8647 7.87467 61.562 7.14C63.2847 6.38 65.324 6 67.68 6C68.5667 6 69.39 6.076 70.15 6.228C70.91 6.38 71.5813 6.51933 72.164 6.646C72.4933 6.722 72.772 6.798 73 6.874C73.2533 6.92467 73.4687 6.95 73.646 6.95H73.988V10.978H73.608C73.456 10.1927 73.152 9.55933 72.696 9.078C72.2653 8.59667 71.7587 8.22933 71.176 7.976C70.5933 7.72267 69.9727 7.558 69.314 7.482C68.6807 7.38067 68.0853 7.33 67.528 7.33C65.628 7.33 63.9813 7.672 62.588 8.356C61.1947 9.01467 60.0547 9.876 59.168 10.94C58.2813 12.004 57.6227 13.2073 57.192 14.55C56.7613 15.8673 56.546 17.1847 56.546 18.502C56.546 19.9713 56.8247 21.428 57.382 22.872C57.9393 24.2907 58.7247 25.57 59.738 26.71C60.7513 27.8247 61.9673 28.7367 63.386 29.446C64.83 30.13 66.426 30.472 68.174 30.472C68.6553 30.472 69.2507 30.4213 69.96 30.32C70.6693 30.1933 71.3787 29.9273 72.088 29.522V20.592C72.088 20.4147 72.0627 20.212 72.012 19.984C71.9613 19.756 71.8727 19.5407 71.746 19.338C71.6447 19.1353 71.518 18.9707 71.366 18.844C71.214 18.692 71.0367 18.616 70.834 18.616H70.644V18.236Z" fill="white"/>
<path d="M85.5866 31.08H85.7766V31.46H80.4186V31.08H80.6086C80.7859 31.08 80.9506 31.004 81.1026 30.852C81.2546 30.7 81.3813 30.5227 81.4826 30.32C81.6093 30.1173 81.6979 29.902 81.7486 29.674C81.7993 29.4207 81.8246 29.1927 81.8246 28.99V8.736C81.8246 8.55867 81.7993 8.356 81.7486 8.128C81.6979 7.9 81.6093 7.68467 81.4826 7.482C81.3813 7.27933 81.2546 7.11467 81.1026 6.988C80.9506 6.836 80.7859 6.76 80.6086 6.76H80.4186V6.38H87.0306C89.5639 6.38 91.5146 6.874 92.8826 7.862C94.2759 8.85 94.9726 10.3067 94.9726 12.232C94.9726 13.1947 94.8079 14.0433 94.4786 14.778C94.1746 15.4873 93.7566 16.108 93.2246 16.64C92.6926 17.1467 92.0593 17.5647 91.3246 17.894C90.6153 18.198 89.8553 18.426 89.0446 18.578L91.7806 22.758C92.4393 23.7713 93.1106 24.772 93.7946 25.76C94.4786 26.7227 95.1499 27.7233 95.8086 28.762C95.9859 29.0153 96.1759 29.2813 96.3786 29.56C96.6066 29.8387 96.8346 30.092 97.0626 30.32C97.3159 30.548 97.5693 30.738 97.8226 30.89C98.1013 31.0167 98.3799 31.08 98.6586 31.08V31.46H97.0246C96.0113 31.46 95.1753 31.2193 94.5166 30.738C93.8833 30.2313 93.3513 29.6487 92.9206 28.99C91.7806 27.318 90.6406 25.6207 89.5006 23.898C88.3859 22.1753 87.2713 20.478 86.1566 18.806C85.8779 18.7807 85.5739 18.7553 85.2446 18.73C84.9406 18.6793 84.6493 18.6287 84.3706 18.578V28.99C84.3706 29.1927 84.3959 29.4207 84.4466 29.674C84.4973 29.902 84.5733 30.1173 84.6746 30.32C84.8013 30.5227 84.9279 30.7 85.0546 30.852C85.2066 31.004 85.3839 31.08 85.5866 31.08ZM84.3706 7.672V17.324H84.5606C84.7633 17.3493 85.0799 17.3747 85.5106 17.4C85.9666 17.4 86.5239 17.4 87.1826 17.4C87.7146 17.4 88.2719 17.324 88.8546 17.172C89.4626 16.9947 90.0199 16.716 90.5266 16.336C91.0586 15.9307 91.4893 15.4113 91.8186 14.778C92.1733 14.1447 92.3506 13.3467 92.3506 12.384C92.3506 11.4213 92.1606 10.636 91.7806 10.028C91.4259 9.42 90.9193 8.93867 90.2606 8.584C89.6273 8.22933 88.8546 7.98867 87.9426 7.862C87.0306 7.73533 86.0299 7.672 84.9406 7.672H84.3706Z" fill="white"/>
<path d="M102.232 6.38H107.666V6.76H107.476C107.299 6.76 107.134 6.836 106.982 6.988C106.83 7.11467 106.703 7.27933 106.602 7.482C106.501 7.65933 106.412 7.87467 106.336 8.128C106.285 8.356 106.26 8.55867 106.26 8.736V28.99C106.26 29.1927 106.285 29.4207 106.336 29.674C106.387 29.902 106.463 30.1173 106.564 30.32C106.691 30.5227 106.817 30.7 106.944 30.852C107.096 31.004 107.273 31.08 107.476 31.08H107.666V31.46H102.232V31.08H102.422C102.625 31.08 102.802 31.0167 102.954 30.89C103.106 30.738 103.233 30.5607 103.334 30.358C103.461 30.13 103.549 29.902 103.6 29.674C103.651 29.4207 103.676 29.1927 103.676 28.99V8.736C103.676 8.55867 103.651 8.356 103.6 8.128C103.549 7.9 103.461 7.68467 103.334 7.482C103.233 7.27933 103.106 7.11467 102.954 6.988C102.802 6.836 102.625 6.76 102.422 6.76H102.232V6.38Z" fill="white"/>
<path d="M112.46 31.08H112.65C112.853 31.08 113.03 31.0167 113.182 30.89C113.334 30.738 113.461 30.5607 113.562 30.358C113.689 30.1553 113.778 29.94 113.828 29.712C113.904 29.484 113.942 29.2687 113.942 29.066V8.736C113.942 8.55867 113.904 8.356 113.828 8.128C113.778 7.9 113.689 7.68467 113.562 7.482C113.461 7.27933 113.334 7.11467 113.182 6.988C113.03 6.836 112.853 6.76 112.65 6.76H112.46V6.38H117.932V6.76H117.742C117.54 6.76 117.362 6.836 117.21 6.988C117.058 7.11467 116.932 7.27933 116.83 7.482C116.729 7.68467 116.64 7.9 116.564 8.128C116.514 8.356 116.488 8.55867 116.488 8.736V30.054H124.81C125.292 30.054 125.71 29.94 126.064 29.712C126.419 29.484 126.71 29.2053 126.938 28.876C127.192 28.5213 127.369 28.154 127.47 27.774C127.597 27.3687 127.66 27.0013 127.66 26.672H128.04V31.46H112.46V31.08Z" fill="white"/>
<path d="M131.264 31.08H131.454C131.657 31.08 131.834 31.0167 131.986 30.89C132.138 30.738 132.265 30.5607 132.366 30.358C132.493 30.1553 132.582 29.94 132.632 29.712C132.708 29.484 132.746 29.2687 132.746 29.066V8.736C132.746 8.55867 132.708 8.356 132.632 8.128C132.582 7.9 132.493 7.68467 132.366 7.482C132.265 7.27933 132.138 7.11467 131.986 6.988C131.834 6.836 131.657 6.76 131.454 6.76H131.264V6.38H136.736V6.76H136.546C136.344 6.76 136.166 6.836 136.014 6.988C135.862 7.11467 135.736 7.27933 135.634 7.482C135.533 7.68467 135.444 7.9 135.368 8.128C135.318 8.356 135.292 8.55867 135.292 8.736V30.054H143.614C144.096 30.054 144.514 29.94 144.868 29.712C145.223 29.484 145.514 29.2053 145.742 28.876C145.996 28.5213 146.173 28.154 146.274 27.774C146.401 27.3687 146.464 27.0013 146.464 26.672H146.844V31.46H131.264V31.08Z" fill="white"/>
<path d="M150.22 6.38H155.654V6.76H155.464C155.287 6.76 155.122 6.836 154.97 6.988C154.818 7.11467 154.692 7.27933 154.59 7.482C154.489 7.65933 154.4 7.87467 154.324 8.128C154.274 8.356 154.248 8.55867 154.248 8.736V28.99C154.248 29.1927 154.274 29.4207 154.324 29.674C154.375 29.902 154.451 30.1173 154.552 30.32C154.679 30.5227 154.806 30.7 154.932 30.852C155.084 31.004 155.262 31.08 155.464 31.08H155.654V31.46H150.22V31.08H150.41C150.613 31.08 150.79 31.0167 150.942 30.89C151.094 30.738 151.221 30.5607 151.322 30.358C151.449 30.13 151.538 29.902 151.588 29.674C151.639 29.4207 151.664 29.1927 151.664 28.99V8.736C151.664 8.55867 151.639 8.356 151.588 8.128C151.538 7.9 151.449 7.68467 151.322 7.482C151.221 7.27933 151.094 7.11467 150.942 6.988C150.79 6.836 150.613 6.76 150.41 6.76H150.22V6.38Z" fill="white"/>
<path d="M70.644 18.236H76.078V18.616H75.888C75.6853 18.616 75.508 18.692 75.356 18.844C75.204 18.9707 75.0773 19.1353 74.976 19.338C74.8747 19.5407 74.786 19.756 74.71 19.984C74.6593 20.212 74.634 20.4147 74.634 20.592V30.776C74.178 30.9533 73.6587 31.1053 73.076 31.232C72.4933 31.3587 71.8853 31.46 71.252 31.536C70.6187 31.6373 69.9727 31.7133 69.314 31.764C68.6553 31.8147 68.0473 31.84 67.49 31.84C65.21 31.84 63.2213 31.46 61.524 30.7C59.8267 29.94 58.4207 28.952 57.306 27.736C56.1913 26.4947 55.3553 25.1013 54.798 23.556C54.266 22.0107 54 20.4527 54 18.882C54 17.3113 54.266 15.7533 54.798 14.208C55.3553 12.6627 56.1913 11.282 57.306 10.066C58.446 8.85 59.8647 7.87467 61.562 7.14C63.2847 6.38 65.324 6 67.68 6C68.5667 6 69.39 6.076 70.15 6.228C70.91 6.38 71.5813 6.51933 72.164 6.646C72.4933 6.722 72.772 6.798 73 6.874C73.2533 6.92467 73.4687 6.95 73.646 6.95H73.988V10.978H73.608C73.456 10.1927 73.152 9.55933 72.696 9.078C72.2653 8.59667 71.7587 8.22933 71.176 7.976C70.5933 7.72267 69.9727 7.558 69.314 7.482C68.6807 7.38067 68.0853 7.33 67.528 7.33C65.628 7.33 63.9813 7.672 62.588 8.356C61.1947 9.01467 60.0547 9.876 59.168 10.94C58.2813 12.004 57.6227 13.2073 57.192 14.55C56.7613 15.8673 56.546 17.1847 56.546 18.502C56.546 19.9713 56.8247 21.428 57.382 22.872C57.9393 24.2907 58.7247 25.57 59.738 26.71C60.7513 27.8247 61.9673 28.7367 63.386 29.446C64.83 30.13 66.426 30.472 68.174 30.472C68.6553 30.472 69.2507 30.4213 69.96 30.32C70.6693 30.1933 71.3787 29.9273 72.088 29.522V20.592C72.088 20.4147 72.0627 20.212 72.012 19.984C71.9613 19.756 71.8727 19.5407 71.746 19.338C71.6447 19.1353 71.518 18.9707 71.366 18.844C71.214 18.692 71.0367 18.616 70.834 18.616H70.644V18.236Z" stroke="white" mask="url(#path-2-outside-1_29_6)"/>
<path d="M85.5866 31.08H85.7766V31.46H80.4186V31.08H80.6086C80.7859 31.08 80.9506 31.004 81.1026 30.852C81.2546 30.7 81.3813 30.5227 81.4826 30.32C81.6093 30.1173 81.6979 29.902 81.7486 29.674C81.7993 29.4207 81.8246 29.1927 81.8246 28.99V8.736C81.8246 8.55867 81.7993 8.356 81.7486 8.128C81.6979 7.9 81.6093 7.68467 81.4826 7.482C81.3813 7.27933 81.2546 7.11467 81.1026 6.988C80.9506 6.836 80.7859 6.76 80.6086 6.76H80.4186V6.38H87.0306C89.5639 6.38 91.5146 6.874 92.8826 7.862C94.2759 8.85 94.9726 10.3067 94.9726 12.232C94.9726 13.1947 94.8079 14.0433 94.4786 14.778C94.1746 15.4873 93.7566 16.108 93.2246 16.64C92.6926 17.1467 92.0593 17.5647 91.3246 17.894C90.6153 18.198 89.8553 18.426 89.0446 18.578L91.7806 22.758C92.4393 23.7713 93.1106 24.772 93.7946 25.76C94.4786 26.7227 95.1499 27.7233 95.8086 28.762C95.9859 29.0153 96.1759 29.2813 96.3786 29.56C96.6066 29.8387 96.8346 30.092 97.0626 30.32C97.3159 30.548 97.5693 30.738 97.8226 30.89C98.1013 31.0167 98.3799 31.08 98.6586 31.08V31.46H97.0246C96.0113 31.46 95.1753 31.2193 94.5166 30.738C93.8833 30.2313 93.3513 29.6487 92.9206 28.99C91.7806 27.318 90.6406 25.6207 89.5006 23.898C88.3859 22.1753 87.2713 20.478 86.1566 18.806C85.8779 18.7807 85.5739 18.7553 85.2446 18.73C84.9406 18.6793 84.6493 18.6287 84.3706 18.578V28.99C84.3706 29.1927 84.3959 29.4207 84.4466 29.674C84.4973 29.902 84.5733 30.1173 84.6746 30.32C84.8013 30.5227 84.9279 30.7 85.0546 30.852C85.2066 31.004 85.3839 31.08 85.5866 31.08ZM84.3706 7.672V17.324H84.5606C84.7633 17.3493 85.0799 17.3747 85.5106 17.4C85.9666 17.4 86.5239 17.4 87.1826 17.4C87.7146 17.4 88.2719 17.324 88.8546 17.172C89.4626 16.9947 90.0199 16.716 90.5266 16.336C91.0586 15.9307 91.4893 15.4113 91.8186 14.778C92.1733 14.1447 92.3506 13.3467 92.3506 12.384C92.3506 11.4213 92.1606 10.636 91.7806 10.028C91.4259 9.42 90.9193 8.93867 90.2606 8.584C89.6273 8.22933 88.8546 7.98867 87.9426 7.862C87.0306 7.73533 86.0299 7.672 84.9406 7.672H84.3706Z" stroke="white" mask="url(#path-2-outside-1_29_6)"/>
<path d="M102.232 6.38H107.666V6.76H107.476C107.299 6.76 107.134 6.836 106.982 6.988C106.83 7.11467 106.703 7.27933 106.602 7.482C106.501 7.65933 106.412 7.87467 106.336 8.128C106.285 8.356 106.26 8.55867 106.26 8.736V28.99C106.26 29.1927 106.285 29.4207 106.336 29.674C106.387 29.902 106.463 30.1173 106.564 30.32C106.691 30.5227 106.817 30.7 106.944 30.852C107.096 31.004 107.273 31.08 107.476 31.08H107.666V31.46H102.232V31.08H102.422C102.625 31.08 102.802 31.0167 102.954 30.89C103.106 30.738 103.233 30.5607 103.334 30.358C103.461 30.13 103.549 29.902 103.6 29.674C103.651 29.4207 103.676 29.1927 103.676 28.99V8.736C103.676 8.55867 103.651 8.356 103.6 8.128C103.549 7.9 103.461 7.68467 103.334 7.482C103.233 7.27933 103.106 7.11467 102.954 6.988C102.802 6.836 102.625 6.76 102.422 6.76H102.232V6.38Z" stroke="white" mask="url(#path-2-outside-1_29_6)"/>
<path d="M112.46 31.08H112.65C112.853 31.08 113.03 31.0167 113.182 30.89C113.334 30.738 113.461 30.5607 113.562 30.358C113.689 30.1553 113.778 29.94 113.828 29.712C113.904 29.484 113.942 29.2687 113.942 29.066V8.736C113.942 8.55867 113.904 8.356 113.828 8.128C113.778 7.9 113.689 7.68467 113.562 7.482C113.461 7.27933 113.334 7.11467 113.182 6.988C113.03 6.836 112.853 6.76 112.65 6.76H112.46V6.38H117.932V6.76H117.742C117.54 6.76 117.362 6.836 117.21 6.988C117.058 7.11467 116.932 7.27933 116.83 7.482C116.729 7.68467 116.64 7.9 116.564 8.128C116.514 8.356 116.488 8.55867 116.488 8.736V30.054H124.81C125.292 30.054 125.71 29.94 126.064 29.712C126.419 29.484 126.71 29.2053 126.938 28.876C127.192 28.5213 127.369 28.154 127.47 27.774C127.597 27.3687 127.66 27.0013 127.66 26.672H128.04V31.46H112.46V31.08Z" stroke="white" mask="url(#path-2-outside-1_29_6)"/>
<path d="M131.264 31.08H131.454C131.657 31.08 131.834 31.0167 131.986 30.89C132.138 30.738 132.265 30.5607 132.366 30.358C132.493 30.1553 132.582 29.94 132.632 29.712C132.708 29.484 132.746 29.2687 132.746 29.066V8.736C132.746 8.55867 132.708 8.356 132.632 8.128C132.582 7.9 132.493 7.68467 132.366 7.482C132.265 7.27933 132.138 7.11467 131.986 6.988C131.834 6.836 131.657 6.76 131.454 6.76H131.264V6.38H136.736V6.76H136.546C136.344 6.76 136.166 6.836 136.014 6.988C135.862 7.11467 135.736 7.27933 135.634 7.482C135.533 7.68467 135.444 7.9 135.368 8.128C135.318 8.356 135.292 8.55867 135.292 8.736V30.054H143.614C144.096 30.054 144.514 29.94 144.868 29.712C145.223 29.484 145.514 29.2053 145.742 28.876C145.996 28.5213 146.173 28.154 146.274 27.774C146.401 27.3687 146.464 27.0013 146.464 26.672H146.844V31.46H131.264V31.08Z" stroke="white" mask="url(#path-2-outside-1_29_6)"/>
<path d="M150.22 6.38H155.654V6.76H155.464C155.287 6.76 155.122 6.836 154.97 6.988C154.818 7.11467 154.692 7.27933 154.59 7.482C154.489 7.65933 154.4 7.87467 154.324 8.128C154.274 8.356 154.248 8.55867 154.248 8.736V28.99C154.248 29.1927 154.274 29.4207 154.324 29.674C154.375 29.902 154.451 30.1173 154.552 30.32C154.679 30.5227 154.806 30.7 154.932 30.852C155.084 31.004 155.262 31.08 155.464 31.08H155.654V31.46H150.22V31.08H150.41C150.613 31.08 150.79 31.0167 150.942 30.89C151.094 30.738 151.221 30.5607 151.322 30.358C151.449 30.13 151.538 29.902 151.588 29.674C151.639 29.4207 151.664 29.1927 151.664 28.99V8.736C151.664 8.55867 151.639 8.356 151.588 8.128C151.538 7.9 151.449 7.68467 151.322 7.482C151.221 7.27933 151.094 7.11467 150.942 6.988C150.79 6.836 150.613 6.76 150.41 6.76H150.22V6.38Z" stroke="white" mask="url(#path-2-outside-1_29_6)"/>
<path fill-rule="evenodd" clip-rule="evenodd" d="M32.5132 42.597C29.684 44.1297 26.4436 45 23 45C11.9543 45 3 36.0457 3 25C3 13.9543 11.9543 5 23 5C26.0521 5 28.9446 5.68368 31.5326 6.90625C31.3663 7.11885 31.209 7.34319 31.0619 7.57929C30.37 8.68974 29.8253 10.0318 29.47 11.4633C27.5111 10.5253 25.3169 10 23 10C14.7157 10 8 16.7157 8 25C8 33.2843 14.7157 40 23 40C27.2915 40 31.162 38.1978 33.8961 35.309C33.5961 36.4152 33.1892 37.6031 32.6373 38.9318C32.2262 39.809 32.1122 40.4488 32.1122 41.4602C32.1122 41.8663 32.2596 42.247 32.5132 42.597ZM29.0138 14.6134C28.8567 18.2765 30.0306 21.8663 33.1625 23.2555C34.135 24.128 34.7379 25.2124 34.7379 26.6199C34.7379 26.9224 34.7379 27.2186 34.7371 27.5099C33.5832 32.9324 28.7666 37 23 37C16.3726 37 11 31.6274 11 25C11 18.3726 16.3726 13 23 13C25.1914 13 27.2456 13.5874 29.0138 14.6134Z" fill="#E4C590"/>
<path d="M41.7607 22.8781C46.7982 20.5576 46.5779 13.151 43.8104 8.53905C40.9996 3.85445 36.7943 3.78631 33.9427 8.53905C31.1901 13.126 30.9363 20.5491 35.9923 22.8781C36.9183 23.7408 37.6263 25.4349 37.6263 26.8266C37.6263 31.0162 37.8838 34.3087 35.7001 39.1394C35.3086 40.0068 35.1257 40.6631 35.1257 41.2062C35.1257 43.2981 36.8081 45 38.8765 45C40.9449 45 42.6273 43.2981 42.6273 41.2062C42.6273 40.6631 42.4445 40.0068 42.053 39.1394C39.8389 34.2417 40.1268 30.7222 40.1268 26.8266C40.1268 25.4349 40.8348 23.7408 41.7607 22.8781Z" fill="#E4C590"/>
</svg>
